<svg width="48" height="48" viewBox="0 0 48 48" fill="none" xmlns="http://www.w3.org/2000/svg">
<path d="M5.94392 0.134975C5.85273 0.204964 4.48483 2.35455 2.90416 4.91405L0.0366498 9.56315L0.00625223 11.2928C-0.0140128 12.2526 0.0163848 13.3224 0.07718 13.6824C0.208903 14.5522 0.654735 15.442 1.28295 16.1219L1.80984 16.6918V25.4401V34.1984L2.05303 34.4783L2.29621 34.7583H8.14268H13.9892L14.2425 34.4683C14.4451 34.2284 14.4856 34.1084 14.435 33.8185C14.3235 33.0786 14.5667 33.1086 8.7405 33.1086H3.53238V25.2801V17.4416L4.35311 17.4916C5.73114 17.5716 7.0281 17.0617 7.98056 16.0819L8.32507 15.722L8.82156 16.2119C9.1154 16.5018 9.62203 16.8517 10.0881 17.0817C10.8582 17.4516 10.8886 17.4616 12.0336 17.4616C13.1786 17.4616 13.2292 17.4516 13.979 17.1017C14.4553 16.8717 14.9315 16.5518 15.2557 16.2319L15.7623 15.732L16.1575 16.1219C17.9915 17.9815 20.9907 17.9815 22.8247 16.1219L23.2199 15.732L23.7063 16.2119C24.0001 16.5018 24.527 16.8617 24.983 17.0817C25.753 17.4516 25.7834 17.4616 26.9385 17.4616C28.0936 17.4616 28.124 17.4516 28.8941 17.0817C29.3501 16.8617 29.877 16.5018 30.1708 16.2119L30.6673 15.732L31.0017 16.0819C31.9744 17.0917 33.2511 17.5716 34.7305 17.4916C35.4701 17.4516 35.6627 17.4716 35.7944 17.5916C35.8856 17.6816 36.1186 17.7516 36.3213 17.7516C36.757 17.7516 37.1724 17.3616 37.1724 16.9417C37.1724 16.7818 37.3548 16.5018 37.6993 16.1219C38.2971 15.472 38.7429 14.6022 38.9051 13.7823C38.9557 13.4524 38.9963 12.3926 38.976 11.3828L38.9456 9.56315L36.0781 4.91405C34.4974 2.35455 33.1295 0.204964 33.0383 0.134975C32.8053 -0.0449905 6.17697 -0.0449905 5.94392 0.134975ZM10.4022 1.73466C10.382 1.80465 9.76389 3.47433 9.04448 5.43395L7.73738 9.01326H5.13332C3.6945 9.01326 2.51912 8.98326 2.51912 8.95327C2.51912 8.92328 3.53238 7.2636 4.76855 5.25399L7.00784 1.61469H8.73037C10.0577 1.61469 10.4326 1.64468 10.4022 1.73466ZM15.8941 1.73466C15.8941 1.93463 15.0835 8.54335 15.0328 8.7833L14.9821 9.01326H12.297C10.8177 9.01326 9.6119 8.99326 9.6119 8.97327C9.6119 8.90328 12.2464 1.79465 12.3072 1.69468C12.3983 1.5547 15.8941 1.59469 15.8941 1.73466ZM21.4568 2.63449C21.5176 3.20438 21.7203 4.86406 21.9027 6.33378L22.237 9.01326H19.5215C17.0087 9.01326 16.806 9.00326 16.806 8.83329C16.806 8.74331 16.9985 7.07364 17.2316 5.13401L17.6571 1.61469H19.5013H21.3352L21.4568 2.63449ZM28.0025 5.184C28.732 7.14362 29.3298 8.8033 29.3501 8.88329C29.3805 8.99326 28.8941 9.01326 26.6954 9.01326H24.0102L23.9494 8.68332C23.8886 8.32339 23.0882 1.85464 23.0882 1.70467C23.0882 1.65468 23.8278 1.61469 24.8918 1.61469H26.6852L28.0025 5.184ZM34.2644 5.31397L36.5442 9.01326L33.8996 8.99326L31.255 8.96327L29.9074 5.36396C29.1778 3.38435 28.5699 1.73466 28.5699 1.68468C28.5597 1.64468 29.3298 1.61469 30.2721 1.61469H31.9845L34.2644 5.31397ZM7.48407 11.9927C7.48407 14.0523 7.07876 14.9021 5.8122 15.522C5.21438 15.8119 5.09279 15.8319 4.4747 15.792C3.34999 15.712 2.48872 15.1321 1.99223 14.1223C1.78958 13.7223 1.75918 13.4724 1.72878 12.1826L1.68825 10.7129H4.58616H7.48407V11.9927ZM14.8606 12.2826C14.8302 13.7923 14.82 13.8823 14.5566 14.3322C13.5535 16.0119 11.4256 16.3118 10.0577 14.9721C9.33832 14.2522 9.2066 13.8223 9.2066 12.0927V10.7129H12.0538H14.9011L14.8606 12.2826ZM22.3789 11.9927C22.3789 14.0523 21.9736 14.9021 20.707 15.522C20.1092 15.8119 19.9876 15.8319 19.3695 15.792C18.2448 15.712 17.3937 15.1421 16.8972 14.1523C16.6844 13.7223 16.654 13.4924 16.6236 12.1826L16.5831 10.7129H19.481H22.3789V11.9927ZM29.7554 12.2826C29.725 13.7923 29.7149 13.8823 29.4514 14.3322C28.4483 16.0119 26.3205 16.3118 24.9526 14.9721C24.2332 14.2522 24.1014 13.8223 24.1014 12.0927V10.7129H26.9487H29.7959L29.7554 12.2826ZM37.2535 12.1826C37.2028 13.7923 37.1217 14.1223 36.5644 14.8221C36.3719 15.0521 35.997 15.332 35.5917 15.522C35.004 15.8119 34.8723 15.8319 34.2644 15.792C33.1397 15.712 32.2885 15.1421 31.792 14.1523C31.5792 13.7223 31.5488 13.4924 31.5184 12.1826L31.4779 10.7129H34.386H37.294L37.2535 12.1826Z" fill="#118B50"/>
<path d="M21.1122 17.7616C21.0615 17.7816 20.8791 17.8216 20.7069 17.8616C20.4839 17.9115 19.2072 19.1013 15.752 22.4907C13.1176 25.0902 11.0505 27.1997 10.9695 27.3797C10.777 27.8296 10.7972 28.3495 11.0201 28.7894C11.2735 29.2593 14.1308 32.0588 14.5057 32.1988C14.8604 32.3288 15.3974 32.3388 15.7216 32.2188C15.9648 32.1288 15.975 32.1388 16.0459 32.5687C16.1877 33.4985 16.6538 34.6383 17.2719 35.5681C17.6063 36.068 17.6164 36.088 17.4644 36.438C17.2922 36.8579 17.2719 37.6877 17.4138 38.2276C17.6367 39.0075 18.9337 40.0973 19.6531 40.1073C19.8861 40.1073 19.9368 40.1672 19.9976 40.4772C20.1901 41.527 21.1932 42.5068 22.2977 42.7467C22.5206 42.7967 22.5915 42.8967 22.7334 43.3666C23.0069 44.3164 24.0303 45.2263 24.9727 45.3762C25.2564 45.4262 25.3172 45.4762 25.3172 45.6762C25.3172 46.3261 26.1886 47.4458 26.989 47.8158C27.4957 48.0457 28.5089 48.0657 29.0561 47.8458C29.4107 47.7058 29.5019 47.7058 30.0288 47.8558C31.5588 48.2957 33.0888 47.3858 33.4333 45.8261C33.5245 45.4062 33.5853 45.3062 33.7474 45.3062C34.7809 45.3062 35.9361 44.2465 36.1184 43.1267C36.1792 42.7567 36.2096 42.7267 36.5845 42.6668C37.4357 42.5268 38.2057 41.9369 38.5807 41.1071C38.6921 40.8571 38.7934 40.5372 38.7934 40.3972C38.7934 40.1672 38.8542 40.1173 39.1683 40.0573C40.1816 39.8773 41.053 39.1474 41.3164 38.2976C41.4786 37.7577 41.4887 36.9279 41.3266 36.458C41.2151 36.128 41.2354 36.068 41.5191 35.6281C42.0156 34.8683 42.5121 33.7185 42.7046 32.8886C42.8667 32.2188 42.9072 32.1288 43.0592 32.2188C43.3227 32.3488 43.9205 32.3288 44.2954 32.1688C44.4778 32.0888 45.3593 31.299 46.251 30.3991C48.0444 28.5995 48.1356 28.4395 47.9127 27.5897C47.8114 27.2097 47.2541 26.6299 43.272 22.6806C40.7794 20.2211 38.6009 18.1115 38.4185 18.0015C38.0234 17.7516 37.2229 17.7316 36.8075 17.9415C36.6453 18.0315 35.8043 18.8114 34.9228 19.6812C33.2003 21.4009 33.0686 21.6108 33.2915 22.4307C33.3928 22.8006 33.3827 22.8206 33.1293 22.8706C31.8222 23.1305 30.505 23.6404 29.8059 24.1703C29.4107 24.4603 29.431 24.4703 29.0257 24.1603C28.5089 23.7704 27.06 23.1505 26.2291 22.9506C25.8137 22.8606 25.459 22.7706 25.4489 22.7606C25.4387 22.7606 25.4691 22.5806 25.5299 22.3807C25.7427 21.6208 25.5502 21.3109 23.8682 19.6312C23.0171 18.7814 22.2166 18.0415 22.0747 17.9715C21.8012 17.8316 21.2743 17.7216 21.1122 17.7616ZM23.1893 21.3509L23.8479 22.0107L19.5112 26.2899L15.1846 30.5591L13.8978 29.2793L12.6008 28.0096L16.897 23.7704L21.2033 19.5212L21.862 20.1111C22.2267 20.4311 22.8246 20.9909 23.1893 21.3509ZM44.9439 29.3193L43.7077 30.5891L40.7693 27.7296C39.1582 26.15 37.1824 24.2303 36.392 23.4605L34.9532 22.0607L36.24 20.781L37.5269 19.5112L41.8535 23.7804L46.1801 28.0496L44.9439 29.3193ZM26.3405 24.7802C26.7864 24.9202 27.3538 25.1701 27.6172 25.3301L28.0833 25.6201L26.5533 27.1398C24.8207 28.8694 24.6079 29.1894 24.6079 30.2092C24.6079 30.999 24.8409 31.5389 25.4083 32.0988C26.0062 32.6887 26.5635 32.9386 27.293 32.9486C28.3671 32.9586 28.5494 32.8387 30.3834 31.049L32.0654 29.4093L35.8854 33.1886C39.6344 36.8979 39.7054 36.9679 39.7054 37.3678C39.7054 37.5877 39.6344 37.8577 39.5534 37.9677C39.3507 38.2576 38.8542 38.4476 38.5199 38.3576C38.3375 38.3176 37.3749 37.4478 35.8347 35.9381L33.4333 33.5785L33.0483 33.6385C32.5721 33.7185 32.3086 34.0184 32.3086 34.4983C32.3086 34.8383 32.4505 34.9982 34.5479 37.0578C35.7739 38.2676 36.848 39.3774 36.929 39.5274C37.2938 40.2172 36.8581 41.0071 36.0982 41.0071C35.7334 41.0071 35.5916 40.8871 33.2813 38.6175C31.7615 37.1278 30.7381 36.198 30.5658 36.158C29.9984 36.018 29.4715 36.418 29.4715 36.9979C29.4715 37.3178 29.6539 37.5278 31.9033 39.7573C33.7373 41.567 34.3453 42.2368 34.3959 42.4668C34.4972 42.9867 34.0615 43.6066 33.5954 43.6066C33.484 43.6066 33.4637 43.4566 33.5042 42.8667C33.565 41.9369 33.4333 41.547 32.8456 40.9071C32.3491 40.3572 31.8628 40.0673 31.265 39.9573C30.9711 39.8973 30.8901 39.8373 30.8901 39.6673C30.8901 39.2574 30.4138 38.4476 29.9072 37.9977C29.4411 37.5877 28.8433 37.3078 28.438 37.3078C28.3468 37.3078 28.2252 37.0878 28.1137 36.6979C27.9921 36.248 27.83 35.9681 27.4754 35.5881C26.9282 35.0182 26.5939 34.8283 25.996 34.7283C25.6009 34.6583 25.5705 34.6283 25.4995 34.2384C25.4083 33.6985 25.2868 33.4785 24.7801 32.9386C24.1519 32.2688 23.696 32.0688 22.784 32.0588C21.7505 32.0588 21.3756 32.2688 19.9672 33.6385C19.035 34.5483 18.8121 34.7283 18.7209 34.6083C18.1129 33.7085 17.6164 32.1788 17.6164 31.169V30.5591L20.7372 27.4797L23.8479 24.3903L24.6889 24.4503C25.1753 24.4903 25.8744 24.6202 26.3405 24.7802ZM38.1146 27.5797L41.2354 30.6591L41.1746 31.4489C41.1341 31.8888 41.0125 32.5387 40.901 32.8986C40.6984 33.5585 40.1411 34.7083 40.0195 34.7083C39.9891 34.7083 38.3375 33.1086 36.3616 31.149C34.3858 29.1994 32.643 27.5297 32.491 27.4497C31.9742 27.1798 31.7412 27.3397 29.7755 29.2693C28.742 30.2792 27.7895 31.139 27.6476 31.189C27.1005 31.3889 26.3304 30.7891 26.3304 30.1692C26.3304 29.8892 26.5837 29.6093 28.438 27.7996C29.7957 26.4699 30.7482 25.6101 31.1434 25.3801C31.8729 24.9602 32.8355 24.6202 33.6765 24.5103C34.8924 24.3403 34.6594 24.1803 38.1146 27.5797ZM23.3717 33.9584C23.777 34.2984 23.9087 34.6883 23.7466 35.0682C23.5845 35.4382 20.6866 38.2676 20.3522 38.3876C19.8152 38.5875 19.035 37.9877 19.035 37.3678C19.035 37.1078 19.268 36.8279 20.7372 35.3882C22.6219 33.5285 22.7638 33.4485 23.3717 33.9584ZM26.0568 36.5879C26.3507 36.8479 26.5533 37.2978 26.4925 37.5477C26.4621 37.6577 25.6617 38.5176 24.7193 39.4474C23.0576 41.0771 22.9867 41.1271 22.6624 41.0671C22.2774 40.9971 21.6694 40.4072 21.6694 40.1073C21.6694 39.9873 21.7302 39.7773 21.8113 39.6273C21.9734 39.3274 24.7396 36.5979 25.0638 36.418C25.3172 36.278 25.8035 36.358 26.0568 36.5879ZM28.4582 39.0575C28.8635 39.2674 29.1675 39.6873 29.1675 40.0473C29.1675 40.3072 28.9345 40.5872 27.4653 42.0269C26.0062 43.4766 25.7225 43.7066 25.459 43.7066C24.8916 43.7066 24.2127 42.9567 24.3546 42.4768C24.4356 42.2268 27.4957 39.1374 27.7996 39.0075C28.0833 38.8875 28.1239 38.8875 28.4582 39.0575ZM31.4575 41.9469C31.7311 42.2168 31.802 42.3668 31.802 42.6668C31.802 43.0167 31.7007 43.1367 30.1504 44.6764C28.59 46.2061 28.4684 46.3061 28.1137 46.3061C27.597 46.3061 27.0397 45.7862 27.0397 45.2963C27.0397 44.9963 27.2221 44.7764 28.7318 43.2866C30.2618 41.7769 30.4645 41.607 30.7685 41.607C31.0218 41.607 31.2042 41.6969 31.4575 41.9469ZM31.5993 45.8062C31.5385 45.9161 31.3967 46.0561 31.265 46.1161C31.0826 46.2161 31.0927 46.1761 31.3359 45.9161C31.6804 45.5562 31.7513 45.5262 31.5993 45.8062Z" fill="#118B50"/>
</svg>
