<svg width="48" height="48" viewBox="0 0 48 48" fill="none" xmlns="http://www.w3.org/2000/svg">
<g id="image 4 (traced)">
<g id="Black">
<path id="Vector" d="M20.4375 2.33437C17.2687 3.15 14.8312 5.94375 13.8281 9.9375C13.5843 10.9125 13.4531 11.85 13.3593 13.2281L13.2937 14.1281L12.9093 13.9969C12.2718 13.7719 11.3718 13.7437 10.7156 13.9125C9.93745 14.1094 9.51558 14.3344 8.93433 14.85L8.4562 15.2812L8.3062 14.9062C8.13745 14.4656 8.1187 14.0625 8.24995 13.575C8.3437 13.2375 8.58745 12.9469 9.30933 12.2906C9.78745 11.8687 9.96558 11.4844 9.96558 10.9125C9.96558 10.3594 9.63745 9.69375 9.25308 9.44062C8.91558 9.21562 8.3437 9.09375 7.94995 9.15C7.75308 9.1875 7.1062 9.50625 6.49683 9.8625C5.88745 10.2188 4.7062 10.8469 3.87183 11.2594C2.24058 12.0656 2.06245 12.225 1.86558 12.9469C1.65933 13.725 2.0812 14.5687 2.85933 14.9156C3.33745 15.1406 3.62808 15.1406 4.26558 14.9156L4.7812 14.7375V15.0094C4.7812 15.5531 5.4937 15.8719 5.84995 15.4875C5.97183 15.3375 5.99058 15.1594 5.95308 14.4C5.93433 13.8937 5.8687 13.425 5.80308 13.35C5.63433 13.1437 5.13745 13.2 4.49058 13.4906C3.55308 13.9125 3.5062 13.9125 3.2437 13.6594C2.82183 13.2375 2.96245 13.0969 4.67808 12.2437C5.5312 11.8125 6.67495 11.2031 7.20933 10.8937C8.17495 10.3312 8.36245 10.2844 8.6062 10.575C8.80308 10.8281 8.73745 11.1375 8.4187 11.4094C7.4062 12.2719 7.02183 12.9281 6.9562 13.9406C6.92808 14.4187 6.9562 14.7562 7.0687 15.1031C7.16245 15.3656 7.2187 15.5906 7.19995 15.6C7.1812 15.6187 7.0312 15.6844 6.85308 15.75C6.68433 15.8156 6.3937 15.975 6.19683 16.1062C6.00933 16.2375 5.59683 16.3969 5.2687 16.4625C3.92808 16.7437 2.50308 17.8312 1.8937 19.0312C1.4812 19.8562 1.27495 20.8594 1.34995 21.7312C1.4062 22.4812 1.76245 23.625 2.02495 23.9156C2.39058 24.3187 3.1687 23.9719 3.06558 23.4562C3.03745 23.3156 2.91558 22.95 2.80308 22.6406C2.2312 21.1219 2.77495 19.3031 4.1062 18.3281C4.34995 18.15 4.57495 18 4.60308 18C4.6312 18 4.60308 18.225 4.52808 18.4875C4.3312 19.1906 4.34058 20.7187 4.53745 21.4594C4.76245 22.275 5.13745 23.0719 5.65308 23.8312L6.08433 24.4594L4.09683 24.4875C1.86558 24.5156 1.75308 24.5531 1.1812 25.2469L0.89058 25.6125L0.862455 28.6969C0.83433 31.6312 0.843705 31.7906 1.0312 32.1469C1.26558 32.625 1.7062 32.9531 2.2687 33.0937L2.7187 33.2062V35.2031V37.1906L2.33433 37.2469C1.87495 37.3031 1.41558 37.6031 1.11558 38.0437L0.89058 38.3812V41.5312V44.6812L1.11558 45.0187C1.23745 45.1969 1.49058 45.45 1.6687 45.5719L2.0062 45.7969H24H45.9937L46.3312 45.5719C46.5093 45.45 46.7625 45.1969 46.8843 45.0187L47.1093 44.6812V41.5312V38.3812L46.8843 38.0437C46.7625 37.8656 46.5093 37.6125 46.3312 37.4906L45.9937 37.2656L24.9656 37.2375L3.93745 37.2188V35.2031V33.1875H24H44.0625V34.4531C44.0625 35.5969 44.0812 35.7375 44.25 35.9062C44.3531 36.0094 44.5031 36.0938 44.5875 36.0938C44.7656 36.0938 45.1125 35.9156 45.2062 35.775C45.2437 35.7188 45.2812 35.1187 45.2812 34.4437V33.2062L45.7312 33.0937C46.2937 32.9531 46.7343 32.625 46.9687 32.1562C47.1468 31.8094 47.1562 31.6031 47.1562 28.8187C47.1562 25.5281 47.1468 25.4812 46.5281 24.9375C46.35 24.7781 46.0875 24.6281 45.9468 24.6L45.6843 24.5437L45.6937 23.4562C45.7031 22.1625 45.5906 21.6187 45.075 20.55C44.1468 18.5906 42.0843 17.3156 39.825 17.3062C38.775 17.2969 38.5312 17.4187 38.5312 17.9625C38.5312 18.4031 38.85 18.6094 39.4125 18.525C40.05 18.4219 41.0343 18.6187 41.8125 19.0031C43.5468 19.8469 44.6718 21.7875 44.4843 23.6156C44.4468 23.9531 44.4 24.2719 44.3718 24.3469C44.3343 24.4406 43.7812 24.4688 41.6531 24.4688H38.9812L39.0375 24.2531C39.2062 23.6531 39.3 22.6594 39.2437 22.05C39.1593 21.0656 39.0281 20.5875 38.5593 19.6031C38.2218 18.9 38.0062 18.5906 37.425 18.0094C37.0312 17.6062 36.4875 17.1562 36.225 17.0156L35.7468 16.7437L35.9718 16.2375C36.4875 15.0656 36.7312 13.2188 36.4125 12.9C36.3375 12.8156 36.1218 12.75 35.9531 12.75C35.5312 12.75 35.3437 13.0219 35.3437 13.6406C35.3437 14.4094 35.2125 14.4375 34.9125 13.7156C34.6875 13.1625 34.65 12.9562 34.6406 12.1312C34.6406 11.2312 34.65 11.1656 34.9968 10.4625C35.4375 9.58125 36.2718 8.6625 37.2562 7.97812C37.6406 7.71562 37.9968 7.5 38.0437 7.5C38.1375 7.5 38.4562 8.57812 38.6156 9.42188C39.0281 11.6344 38.6625 13.2562 37.5468 14.2125C36.9937 14.6812 36.8812 15.0281 37.1718 15.3187C37.4437 15.5812 37.6781 15.5906 38.1093 15.3281C38.8781 14.8875 39.5531 13.8375 39.8531 12.6562C40.1718 11.3906 39.9187 9.01875 39.2625 7.07812C39.0093 6.31875 38.9062 6.1125 38.6906 6C38.4468 5.86875 38.4 5.87812 37.7156 6.225C36.7593 6.72187 35.7 7.51875 35.0156 8.26875C33.9656 9.42188 33.4687 10.4906 33.3937 11.7937C33.3187 13.05 33.6375 14.2125 34.3781 15.3562C34.6031 15.7219 34.6875 15.9375 34.65 16.0875C34.5562 16.4531 33.825 17.2687 33.2062 17.7C32.6906 18.0562 32.625 18.1406 32.625 18.4125C32.625 18.7687 32.8687 19.0312 33.1968 19.0312C33.4781 19.0312 34.2281 18.5812 34.6968 18.1219L35.0437 17.7937L35.4468 18.0094C36.075 18.3187 37.1156 19.4437 37.4812 20.1844C38.0812 21.4031 38.1937 22.7437 37.8187 23.9531L37.65 24.4688H31.8656H26.0812L26.0156 24.1594C25.9031 23.6344 25.4718 22.9594 25.0406 22.6312C24.3468 22.0969 23.5781 21.9094 22.3125 21.9469C19.2 22.0312 18.2156 21.9375 16.65 21.3656C14.9437 20.7469 13.3312 19.4344 12.2437 17.775C11.5875 16.7719 11.1375 16.3219 10.4531 15.9281L9.92808 15.6281L10.1906 15.45C10.6312 15.1594 11.4093 14.9719 11.9343 15.0375C12.9 15.1687 13.575 15.6937 14.4 16.9687C15.3093 18.3656 16.9218 19.7156 18.45 20.3531C18.8343 20.5125 19.6218 20.7469 20.1937 20.8687C20.7656 21 21.4968 21.1875 21.8156 21.3C22.3593 21.4875 22.4062 21.4875 22.6312 21.3375C22.8093 21.225 22.875 21.1031 22.875 20.8781C22.875 20.7187 22.8375 20.5312 22.8 20.4656C22.6687 20.2594 21.8718 19.9687 20.8875 19.7719C18.3843 19.2656 16.7156 18.15 15.2625 16.0125C14.7281 15.225 14.6625 15.0844 14.6156 14.5312C14.5406 13.7531 14.6812 11.7375 14.8593 10.8562C15.1593 9.44062 15.7593 7.90312 16.4531 6.84375L16.7812 6.32812L16.725 6.94687C16.65 7.725 16.8468 8.46562 17.3437 9.23438C18.0468 10.3219 18.1218 10.6875 17.8125 11.5875C17.5687 12.2719 17.55 13.4156 17.7656 13.9406C17.85 14.1375 18.0843 14.5875 18.3 14.9344C18.675 15.5531 18.6937 15.6281 18.7406 16.5375C18.8062 17.6062 18.9 17.8125 19.3218 17.8125C19.8281 17.8125 19.9687 17.55 19.9687 16.5656C19.9687 15.5062 19.8281 15.0187 19.3031 14.1844C18.7875 13.3687 18.7312 12.8344 19.0312 11.8219C19.3968 10.6312 19.2187 9.81562 18.3093 8.4C17.9812 7.88437 17.9531 7.8 17.9625 7.18125C18 5.67188 18.6843 4.3875 19.7343 3.9C23.2125 2.25 27.5812 4.575 29.7093 9.21562C30.4406 10.8094 30.8531 12.3844 31.0781 14.4656C31.1531 15.0937 31.3031 15.2812 31.7343 15.2812C31.9687 15.2812 32.1 15.225 32.2031 15.0562C32.3343 14.8594 32.3437 14.7094 32.25 13.9125C31.95 11.1469 31.125 8.82187 29.7187 6.7125C28.3031 4.59375 26.4187 3.10312 24.3281 2.4375C23.3812 2.1375 21.4218 2.08125 20.4375 2.33437ZM9.42183 16.8094C10.0593 17.0344 10.5375 17.475 11.2031 18.4781C12.8718 20.9812 15.0562 22.4437 18 23.025C18.8156 23.1844 20.4937 23.2406 22.2187 23.1562C22.9218 23.1281 23.2125 23.1562 23.6062 23.2875C24.1312 23.4656 24.6843 23.9344 24.7781 24.2719L24.825 24.4688L16.2843 24.45L7.7437 24.4219L7.15308 23.7188C5.7937 22.0969 5.28745 20.3062 5.74683 18.7312C6.22495 17.1375 7.87495 16.275 9.42183 16.8094ZM45.6937 25.8844L45.9375 26.0719V28.8187C45.9375 31.4906 45.9281 31.5656 45.7406 31.7437C45.5437 31.9219 45.0562 31.9219 24 31.9219C2.94371 31.9219 2.4562 31.9219 2.25933 31.7437C2.07183 31.5656 2.06245 31.4906 2.06245 28.8187V26.0719L2.3062 25.8844L2.55933 25.6875H24H45.4406L45.6937 25.8844ZM45.75 38.625C45.9281 38.8031 45.9375 38.9344 45.9375 41.5312C45.9375 44.1281 45.9281 44.2594 45.75 44.4375C45.5625 44.625 45.4406 44.625 24 44.625C2.55933 44.625 2.43745 44.625 2.24995 44.4375C2.07183 44.2594 2.06245 44.1281 2.06245 41.5312C2.06245 38.9344 2.07183 38.8031 2.24995 38.625C2.43745 38.4375 2.55933 38.4375 24 38.4375C45.4406 38.4375 45.5625 38.4375 45.75 38.625Z" fill="#118B50"/>
<path id="Vector_2" d="M6.80626 18.5531C6.69376 18.675 6.65626 18.8531 6.67501 19.1344C6.69376 19.4625 6.75001 19.5656 6.96564 19.6875C7.19064 19.8094 7.24689 19.8094 7.48126 19.6875C7.82814 19.4906 7.96876 18.9469 7.74376 18.6187C7.54689 18.3187 7.05001 18.2812 6.80626 18.5531Z" fill="#118B50"/>
<path id="Vector_3" d="M7.05004 20.5875C6.56254 20.925 7.04067 22.125 8.08129 23.175C8.61567 23.7094 8.76567 23.8125 9.02817 23.8125C9.40317 23.8125 9.65629 23.5781 9.65629 23.2219C9.65629 23.0438 9.48754 22.8094 9.03754 22.3688C8.62504 21.9469 8.34379 21.5625 8.15629 21.15C7.81879 20.4188 7.51879 20.2594 7.05004 20.5875Z" fill="#118B50"/>
<path id="Vector_4" d="M5.87825 28.3313C5.62512 28.5375 5.58762 28.9031 5.81262 29.1844C6.16887 29.6438 6.84387 29.4188 6.84387 28.8375C6.84387 28.3219 6.28137 28.0313 5.87825 28.3313Z" fill="#118B50"/>
<path id="Vector_5" d="M41.1188 28.3688C40.7438 28.7344 41.0157 29.4375 41.5313 29.4375C41.8595 29.4375 42.0938 29.175 42.0938 28.8094C42.0938 28.3031 41.4657 28.0125 41.1188 28.3688Z" fill="#118B50"/>
<path id="Vector_6" d="M5.775 41.175C5.69063 41.2875 5.625 41.4469 5.625 41.5312C5.625 41.6156 5.69063 41.775 5.775 41.8875C5.89688 42.0656 6 42.0937 6.30938 42.075C6.6375 42.0469 6.7125 42.0094 6.7875 41.7844C6.84375 41.625 6.84375 41.4375 6.7875 41.2687C6.7125 41.0531 6.6375 41.0156 6.30938 40.9875C6 40.9687 5.89688 40.9969 5.775 41.175Z" fill="#118B50"/>
<path id="Vector_7" d="M41.0719 41.1C40.9219 41.2875 40.9125 41.775 41.0625 41.9531C41.2031 42.1219 41.8219 42.1406 41.9813 41.9812C42.1313 41.8312 42.1313 41.2312 41.9813 41.0812C41.8219 40.9219 41.2031 40.9406 41.0719 41.1Z" fill="#118B50"/>
<path id="Vector_8" d="M25.125 5.90624C25.0219 6.00937 24.9375 6.17812 24.9375 6.29062C24.9375 6.39374 25.2656 7.10624 25.6594 7.87499L26.3812 9.27187L26.4469 10.8C26.5312 12.7125 26.6719 13.2 27.4312 14.2687C28.1344 15.2625 28.4062 16.0875 28.4062 17.2406C28.4062 17.8031 28.3781 17.8969 28.1625 18.1031C27.6937 18.5344 27.0281 19.6594 26.7562 20.4937C26.5219 21.225 26.4844 21.4687 26.4844 22.4156C26.4844 23.3625 26.5125 23.5406 26.6625 23.7094C26.8781 23.9437 27.3 23.9719 27.5062 23.7562C27.6844 23.5781 27.6844 23.5781 27.6656 22.6875C27.6375 21.8625 27.9 20.7562 28.2844 20.0344C28.425 19.7625 28.8375 19.2469 29.2031 18.8812C30.1219 17.9437 31.0312 17.5031 32.3906 17.3344C32.8219 17.2781 33.2062 17.175 33.3 17.0906C33.5531 16.8656 33.5156 16.4531 33.2156 16.2187C33 16.05 32.8875 16.0312 32.4 16.0875C31.6125 16.1625 30.7969 16.3687 30.1969 16.65C29.9156 16.7719 29.6812 16.8656 29.6719 16.8562C29.6625 16.8375 29.6062 16.5187 29.5406 16.1531C29.4 15.2344 29.1281 14.5406 28.6125 13.8C27.8062 12.6187 27.7219 12.3375 27.6469 10.6406C27.6 9.48749 27.5437 9.01874 27.3937 8.61562C27.1594 7.94999 26.1 5.99062 25.8937 5.83124C25.6687 5.66249 25.3406 5.69062 25.125 5.90624Z" fill="#118B50"/>
<path id="Vector_9" d="M21.2812 6.15938C20.9625 6.27188 20.9062 6.49688 20.9062 7.55625C20.9062 8.93438 21.1031 9.57188 21.8063 10.5375C22.5094 11.5031 22.6125 11.8781 22.5375 13.125C22.4531 14.55 22.7063 15.3656 23.5781 16.4063C24.2719 17.2313 24.3281 17.4375 24.3094 18.8156C24.2906 20.2125 24.3375 20.3438 24.8906 20.3438C25.3594 20.3438 25.4719 20.1 25.5563 18.9375C25.65 17.4563 25.3875 16.6031 24.5156 15.5625C23.8219 14.7281 23.775 14.5594 23.7656 12.9375C23.7656 11.55 23.7563 11.4563 23.5031 10.9219C23.3625 10.6219 23.0719 10.1438 22.8656 9.88125C22.2844 9.12188 22.125 8.60625 22.125 7.4625C22.125 6.51563 22.1156 6.47813 21.8813 6.29063C21.6281 6.09375 21.5344 6.06563 21.2812 6.15938Z" fill="#118B50"/>
</g>
</g>
</svg>
