<svg width="48" height="48" viewBox="0 0 48 48" fill="none" xmlns="http://www.w3.org/2000/svg">
<g id="garden-icon-design-free-vector 1 (traced)" clip-path="url(#clip0_2439_1316)">
<g id="Black">
<path id="Vector" d="M11.2531 0.0531273C10.9235 0.147289 9.91719 1.25954 9.26396 2.2541C8.85201 2.87202 8.35179 3.90189 8.14581 4.53747C7.66325 6.0146 7.68679 7.62119 8.20466 9.063C8.58719 10.1223 9.29927 11.3228 10.1644 12.3586L10.641 12.9235V13.2825C10.641 13.4826 10.6234 13.6415 10.5998 13.6415C10.5822 13.6415 10.3644 13.4414 10.1173 13.1942C8.85201 11.9231 6.95705 11.1404 4.61484 10.9285C3.41431 10.8167 2.94939 10.9109 2.69634 11.3169C2.53156 11.5818 2.50214 11.9937 2.57864 12.8765C2.83169 15.866 3.94395 18.1023 5.78594 19.3499C6.32736 19.7148 7.23953 20.1562 7.90453 20.3798C8.38121 20.5328 9.53467 20.7741 10.2291 20.8624L10.6116 20.9094L10.6293 21.9805C10.6352 22.5749 10.6352 23.0574 10.6175 23.0574C10.6057 23.0574 10.388 22.8515 10.1349 22.5984C8.7402 21.2154 6.60984 20.3974 4.16758 20.315C3.21422 20.2797 3.19068 20.2797 2.99647 20.4151C2.60807 20.6799 2.54922 20.8682 2.56099 21.7333C2.58453 23.2928 2.97293 24.9642 3.58497 26.1882C4.27351 27.5653 5.42108 28.6776 6.83347 29.3485C7.71621 29.7663 8.94028 30.1076 9.90542 30.2077C10.0996 30.2253 10.3468 30.2547 10.4527 30.2724L10.641 30.3018L10.6293 31.726L10.6116 33.1501H8.699H6.78639L6.77462 32.0438C6.75696 30.8256 6.72754 30.702 6.3921 30.4607L6.19789 30.3254H3.39077C0.654258 30.3254 0.583639 30.3254 0.41886 30.449C0.330586 30.5137 0.195231 30.6843 0.124612 30.8256L-0.0107422 31.0845V39.1587V47.227L0.124612 47.4859C0.218771 47.6683 0.336471 47.786 0.518904 47.8802L0.777843 48.0097L24.0588 47.9979L47.3338 47.9802L47.5397 47.8626C47.6516 47.7919 47.7928 47.6507 47.8634 47.5389C47.9811 47.3329 47.9811 47.2623 47.9988 39.2117L48.0105 31.0904L47.8811 30.8256C47.8046 30.6843 47.6692 30.5137 47.5809 30.449C47.4162 30.3313 47.3338 30.3254 44.6679 30.3077C42.0785 30.2959 41.9078 30.3018 41.7136 30.4019C41.6018 30.4666 41.4488 30.602 41.3782 30.7079C41.2487 30.8903 41.2428 30.9609 41.2428 31.9673C41.2428 32.5558 41.2193 33.0619 41.1958 33.1031C41.1487 33.1737 39.8893 33.2031 39.8893 33.1266C39.8893 33.1031 39.9717 32.9559 40.0776 32.7912C40.6367 31.9143 41.1193 30.6843 41.2723 29.7663C41.6195 27.6006 40.9368 25.6762 39.189 23.9402C38.4298 23.181 38.1827 23.028 37.7943 23.0751C37.4588 23.1104 37.0998 23.3811 36.3936 24.1226C35.7639 24.7876 35.2873 25.4644 34.9695 26.1412C34.8047 26.506 34.74 26.5884 34.6634 26.559C33.663 26.1647 32.7567 25.9999 31.568 25.9999C30.5969 25.9999 30.3321 26.047 30.0673 26.2706C29.7848 26.506 29.7377 26.7414 29.7377 27.8537C29.7436 28.9954 29.8319 29.5662 30.1497 30.449C30.4792 31.3729 31.0501 32.2497 31.7269 32.8677C31.874 33.003 31.9799 33.1266 31.9564 33.1443C31.874 33.1913 27.2955 33.1737 27.2955 33.1266C27.2955 33.0972 27.3896 32.9618 27.5015 32.8265C28.2606 31.9202 28.6137 30.7962 28.6196 29.3249C28.6196 28.5363 28.6078 28.4186 28.496 28.2362C28.2312 27.7772 27.7663 27.6595 26.5834 27.7301C26.042 27.7595 25.1534 27.942 24.8179 28.0832C24.7414 28.1185 24.6649 28.0243 24.4766 27.6712C24.1764 27.1181 23.7939 26.6296 23.2584 26.1117C22.7641 25.6409 22.564 25.5291 22.1873 25.5291C21.8519 25.5291 21.6518 25.6527 21.0868 26.2118C20.1747 27.1122 19.6509 28.0538 19.4449 29.1719C19.2331 30.2901 19.4332 31.4023 20.0629 32.6617C20.1923 32.9148 20.2924 33.1325 20.2924 33.1501C20.2924 33.1913 12.6713 33.1855 12.5595 33.1443C12.4771 33.1148 12.4654 32.9324 12.4654 31.7024V30.3018L12.6596 30.2724C12.7596 30.2547 13.0068 30.2253 13.201 30.2077C13.7306 30.1547 14.8311 29.8958 15.402 29.6957C18.3268 28.6658 19.9569 26.4589 20.4395 22.8809C20.569 21.957 20.5572 21.0448 20.416 20.7741C20.2335 20.4092 19.9452 20.2915 19.2566 20.2915C17.8148 20.2915 16.1729 20.6387 14.9547 21.2037C14.2838 21.5156 13.4364 22.1041 12.9244 22.622L12.4654 23.081V21.9923V20.8977L13.0715 20.827C15.6962 20.5093 17.6736 19.4794 18.8976 17.7727C19.9216 16.3427 20.5866 14.0064 20.516 12.0643C20.4983 11.4288 20.4395 11.2816 20.0923 11.0286C19.9452 10.9168 19.8569 10.905 19.0683 10.9168C16.6319 10.9403 14.4074 11.7701 12.9656 13.1825C12.7067 13.4355 12.4889 13.6415 12.483 13.6415C12.4713 13.6415 12.4654 13.4708 12.4654 13.259V12.8765L12.8832 12.388C13.9602 11.1522 14.784 9.61031 15.1136 8.22734C15.5726 6.30296 15.1136 4.21968 13.7718 2.18937C13.1539 1.24778 12.2888 0.276756 11.9063 0.100208C11.6474 -0.0174904 11.5297 -0.0292587 11.2531 0.0531273ZM12.177 3.12508C12.3712 3.40755 12.6655 3.91366 12.8244 4.24911C13.6247 5.92043 13.6306 7.44464 12.8479 9.09831C12.6007 9.61619 12.0181 10.5401 11.6768 10.958L11.5356 11.1227L11.2884 10.8108C10.6469 10.0046 10.0408 8.85115 9.81714 8.02137C9.56997 7.09154 9.60528 5.98517 9.91719 5.05534C10.1585 4.32561 10.7999 3.18393 11.3355 2.5307L11.5414 2.27765L11.6827 2.44242C11.7533 2.5307 11.9769 2.8426 12.177 3.12508ZM5.50935 12.9118C7.02767 13.1825 8.3871 13.9181 9.16391 14.895C9.86422 15.766 10.3821 17.1607 10.5528 18.6555L10.5881 18.9968H10.3468C10.2114 18.9968 9.82891 18.9439 9.50524 18.8791C7.94573 18.5672 6.86878 18.0199 6.04488 17.1254C5.42696 16.4545 5.01501 15.6542 4.72665 14.5596C4.57364 13.9887 4.39709 12.8882 4.44417 12.8C4.4736 12.747 4.75608 12.7764 5.50935 12.9118ZM18.6446 12.9294C18.6446 13.2708 18.4092 14.4477 18.2385 14.9715C17.6618 16.7429 16.6672 17.8198 15.0371 18.4613C14.431 18.6967 13.1421 18.9968 12.7361 18.9968C12.5301 18.9968 12.5242 18.9909 12.5242 18.7732C12.5242 18.4495 12.6831 17.5962 12.8538 17.0077C13.5423 14.6302 15.196 13.2708 17.909 12.8529C18.6681 12.7352 18.6446 12.7352 18.6446 12.9294ZM5.2563 22.263C6.34502 22.4395 7.41608 22.8338 8.14581 23.3399C8.54599 23.6106 9.13449 24.1991 9.38754 24.5875C9.97015 25.4585 10.3998 26.7414 10.5528 28.0714C10.5998 28.4716 10.6293 28.4657 9.78772 28.3245C7.39842 27.9361 5.85656 26.8474 5.07386 24.9877C4.76785 24.2697 4.5913 23.5518 4.43829 22.3924C4.41475 22.1865 4.42063 22.1747 4.56776 22.1747C4.65603 22.1747 4.96794 22.2159 5.2563 22.263ZM18.6446 22.3277C18.6446 22.822 18.3798 24.0167 18.1091 24.7347C17.4146 26.5766 16.1435 27.6477 14.0249 28.1715C13.5717 28.2833 12.8067 28.4128 12.6184 28.4128C12.483 28.4128 12.4948 28.0597 12.6713 27.2063C13.201 24.5934 14.431 23.1869 16.7908 22.4984C17.3381 22.3395 18.1208 22.1924 18.4563 22.1806C18.621 22.1747 18.6446 22.1924 18.6446 22.3277ZM38.1885 25.5409C39.9246 27.5536 39.9599 29.6368 38.3004 32.1085C38.1003 32.4086 37.9178 32.6499 37.8884 32.6499C37.806 32.6499 37.2823 31.8967 36.988 31.3552C36.0229 29.578 36.017 27.8243 36.9704 26.3589C37.2469 25.9352 37.8119 25.2349 37.8825 25.2349C37.9061 25.2349 38.0473 25.3761 38.1885 25.5409ZM22.5404 28.0773C23.2466 29.013 23.4055 30.0252 23.0348 31.1493C22.8818 31.6024 22.411 32.491 22.2756 32.5734C22.1814 32.6264 21.9696 32.3321 21.6753 31.7378C21.3458 31.0669 21.234 30.6196 21.234 29.9782C21.234 29.4014 21.3634 28.9189 21.6577 28.4422C21.8695 28.095 22.1697 27.7066 22.2226 27.7066C22.2462 27.7066 22.3874 27.8772 22.5404 28.0773ZM33.1275 28.0067C33.4041 28.0773 33.7984 28.2127 34.0102 28.3186L34.3869 28.501L34.4222 29.0895C34.4928 30.1547 34.84 31.3023 35.4167 32.3204C35.5815 32.6087 35.6992 32.8559 35.6933 32.8677C35.6521 32.9089 34.5987 32.5381 34.228 32.3498C33.4688 31.9673 32.7979 31.4141 32.4036 30.8374C31.9328 30.1547 31.5915 29.0601 31.5915 28.2127V27.8066L32.1094 27.8478C32.3919 27.8655 32.8509 27.942 33.1275 28.0067ZM26.7423 29.9664C26.6305 31.0845 26.0067 31.9732 24.9591 32.5205C24.6943 32.6558 24.453 32.7676 24.4236 32.7676C24.3883 32.7676 24.4648 32.5381 24.5825 32.2497C24.8238 31.6966 25.0592 30.802 25.0592 30.4372C25.0592 30.09 25.1122 29.9664 25.2828 29.884C25.5535 29.7604 26.2538 29.5956 26.5245 29.5956L26.7835 29.5897L26.7423 29.9664ZM4.93263 39.1234V46.1265H3.40254H1.87245V39.1234V32.1203H3.40254H4.93263V39.1234ZM46.1274 39.1234V46.1265H44.5973H43.0672V39.1234V32.1203H44.5973H46.1274V39.1234ZM41.2134 36.2398V37.4462H23.9999H6.78639L6.76873 36.2986C6.76285 35.6689 6.76873 35.1216 6.7805 35.0804C6.80404 35.0157 10.0702 35.0039 24.0117 35.0157L41.2134 35.0333V36.2398ZM41.2311 40.577L41.2428 41.8305H23.9999H6.75696V40.6064C6.75696 39.9296 6.77462 39.3588 6.79816 39.3411C6.81581 39.3176 14.5722 39.3058 24.0234 39.3117L41.2134 39.3294L41.2311 40.577ZM41.2134 44.9201V46.0971L23.9881 46.1147L6.75696 46.1265V44.9613C6.75696 44.3198 6.77462 43.7725 6.79816 43.7548C6.81581 43.7313 14.5722 43.7195 24.0234 43.7254L41.2134 43.7431V44.9201Z" fill="#118B50"/>
</g>
</g>
<defs>
<clipPath id="clip0_2439_1316">
<rect width="48" height="48" fill="white"/>
</clipPath>
</defs>
</svg>
