<svg width="48" height="48" viewBox="0 0 48 48" fill="none" xmlns="http://www.w3.org/2000/svg">
<g id="Frame 3873">
<g id="Black">
<path id="Vector" d="M22.1677 5.27346C18.6973 5.86234 15.9424 8.62275 15.5115 11.9573L15.4114 12.7081H14.2957C12.9029 12.7081 12.6566 12.767 12.2026 13.2234C11.6716 13.7461 11.5485 14.4527 11.8871 15.1005C12.2257 15.763 12.6643 15.9617 13.8801 16.0059L14.8189 16.0353L14.842 17.1542C14.8651 18.1995 14.8805 18.2952 15.0498 18.5381C15.3191 18.9135 15.6731 19.1123 16.2348 19.208L16.735 19.2889L16.7889 19.7306C16.8504 20.2974 17.2275 21.3795 17.5353 21.9095C18.1586 22.9548 19.0589 23.9779 19.8438 24.53L20.2132 24.795V25.5091V26.2304L19.436 26.6206C18.7588 26.9592 18.6357 26.996 18.4741 26.9224C18.3664 26.8782 18.1817 26.8414 18.0586 26.8414C17.7969 26.8414 9.84021 29.5135 9.13226 29.8447C7.47781 30.6103 6.23891 32.2003 5.90032 33.9816C5.7772 34.6147 5.97727 34.9386 6.46976 34.9386C6.80834 34.9386 7.0238 34.6883 7.13154 34.1878C7.33161 33.2161 7.77023 32.4211 8.52435 31.7144C9.09378 31.1697 9.6863 30.8753 11.3715 30.3011L12.8259 29.8079V32.0825C12.8259 34.6147 12.8259 34.6 12.2872 35.2478C11.7717 35.8734 11.7486 36.0133 11.7486 39.0387V41.7108H9.37081H7.00072L6.79295 41.5194C6.5621 41.2912 6.5621 41.3206 6.69292 39.5613C6.79295 38.2805 6.76217 37.9861 6.53901 37.8315C6.34664 37.6916 5.94649 37.7137 5.74642 37.8683C5.58482 37.9934 5.56174 38.1039 5.45401 39.554C5.39245 40.4079 5.36167 41.2544 5.39245 41.4384C5.47709 41.9537 5.85415 42.4395 6.35433 42.6898L6.77756 42.8885L24.3224 42.8738L41.8749 42.8517L42.2057 42.6456C42.6136 42.3954 42.9676 41.8727 43.0368 41.4384C43.083 41.1293 42.7752 36.3004 42.5982 34.5705C42.4751 33.4148 42.1827 32.5904 41.5901 31.7512C40.9591 30.8532 40.0434 30.1318 38.9892 29.7122C37.9965 29.3074 30.5862 26.8414 30.3707 26.8414C30.2476 26.8414 30.0629 26.8782 29.9552 26.9224C29.7936 26.996 29.6704 26.9592 28.9933 26.6206L28.2161 26.2304V25.5091V24.7877L28.6701 24.4564C29.2087 24.0589 29.9706 23.2786 30.3707 22.7192C31.0171 21.8138 31.5403 20.5698 31.6481 19.7159L31.6943 19.2889L32.1944 19.208C32.7562 19.1123 33.1101 18.9135 33.3795 18.5381C33.5488 18.2952 33.5642 18.1995 33.5872 17.1542L33.6103 16.0353L34.5491 16.0059C35.7496 15.9691 36.1882 15.7703 36.5268 15.1373C36.8807 14.4601 36.773 13.7608 36.2267 13.2234C35.7726 12.767 35.5264 12.7081 34.1336 12.7081H33.0178L32.9178 11.9647C32.5176 8.87302 30.2553 6.37762 27.0233 5.45012C26.3616 5.25874 26.2384 5.25137 24.4455 5.22929C23.4066 5.22193 22.3832 5.23665 22.1677 5.27346ZM26.2 6.4954C29.1241 7.0622 31.348 9.39566 31.7096 12.2812L31.7635 12.7081H31.0402C30.1398 12.7081 29.9475 12.8112 29.9475 13.297C29.9475 13.5326 29.9936 13.643 30.1322 13.7461C30.3014 13.8786 30.4707 13.8859 32.6946 13.8859C34.2336 13.8859 35.1263 13.9154 35.2263 13.9669C35.5957 14.1509 35.5264 14.6294 35.1186 14.7692C34.7954 14.8723 13.6108 14.8723 13.3107 14.7619C13.0568 14.6735 12.9798 14.5705 12.9798 14.3129C12.9798 13.8638 12.672 13.8859 19.9823 13.8859C25.3227 13.8786 26.6617 13.8638 26.7694 13.7829C27.0849 13.5547 27.0849 13.0394 26.7694 12.8112C26.6617 12.7302 25.6228 12.7155 21.6522 12.7081H16.6657L16.7196 12.2812C16.912 10.7207 17.7661 9.10122 18.905 8.12219C19.8207 7.33456 21.0366 6.73095 22.1754 6.4954C22.9449 6.34081 25.4074 6.34081 26.2 6.4954ZM16.7504 17.0144V18.0081H16.4965C16.0886 18.0081 16.0578 17.9271 16.0578 16.926V16.0206H16.4041H16.7504V17.0144ZM30.4476 17.7726C30.4476 19.311 30.4323 19.5834 30.2937 20.0619C29.8013 21.7475 28.4161 23.3891 26.831 24.1546C26.1769 24.4711 24.9841 24.7288 24.1762 24.7288C23.4374 24.7214 22.4448 24.5374 21.8061 24.2724C20.5979 23.7792 19.3052 22.5352 18.5895 21.1807C18.0355 20.1502 17.9816 19.8263 17.9816 17.8094V16.0206H24.2146H30.4476V17.7726ZM32.3714 16.926C32.3714 17.9271 32.3406 18.0081 31.9328 18.0081H31.6789V17.0144V16.0206H32.0251H32.3714V16.926ZM22.4448 25.7225C23.5067 25.9949 24.7841 25.9949 25.9075 25.7225C26.3539 25.6121 26.7771 25.5017 26.854 25.4796C26.9695 25.4354 26.9849 25.487 26.9849 26.039C26.9849 26.8561 27.0926 27.0254 27.8621 27.4008C28.1853 27.5554 28.4469 27.71 28.4469 27.7321C28.4469 27.8646 27.0156 28.3283 26.0691 28.5124C25.1534 28.689 23.1835 28.689 22.3062 28.505C21.3905 28.321 19.9823 27.8499 19.9823 27.7321C19.9823 27.71 20.244 27.5554 20.5672 27.4008C21.3367 27.0254 21.4444 26.8561 21.4444 26.039C21.4444 25.487 21.4598 25.4354 21.5829 25.4796C21.6522 25.5091 22.0446 25.6121 22.4448 25.7225ZM18.2509 28.2474C19.0897 28.7921 20.6518 29.3883 21.9292 29.6533C22.9834 29.8668 25.1919 29.8889 26.2923 29.6901C27.5851 29.4546 29.2164 28.8583 30.1475 28.2621L30.44 28.0781L31.0556 28.2768L31.6789 28.4756V30.9194C31.6789 33.3044 31.6712 33.3707 31.5096 33.6872C31.4095 33.8639 31.2325 34.0773 31.1171 34.1583C30.9017 34.3129 30.8401 34.3129 24.2146 34.3129C17.5892 34.3129 17.5276 34.3129 17.3121 34.1583C17.1967 34.0773 17.0197 33.8639 16.9274 33.6872C16.7581 33.3707 16.7504 33.3044 16.7504 30.9194V28.4756L17.3121 28.2915C17.997 28.0633 17.9739 28.0633 18.2509 28.2474ZM15.5192 30.8826V32.8628H14.9882C14.6958 32.8628 14.388 32.8996 14.3034 32.9437C14.211 32.9879 14.1264 33.0247 14.1033 33.0247C14.0802 33.0247 14.0571 32.2076 14.0571 31.1992V29.381L14.7343 29.1528C15.1036 29.0276 15.4268 28.9172 15.4653 28.9099C15.4961 28.9099 15.5192 29.7932 15.5192 30.8826ZM33.7411 29.1675L34.3721 29.3736V31.1992C34.3721 32.2003 34.3491 33.0247 34.326 33.0247C34.3029 33.0247 34.2182 32.9879 34.1259 32.9437C34.0413 32.8996 33.7334 32.8628 33.441 32.8628H32.9101V30.8753C32.9101 29.3147 32.9332 28.8951 33.0101 28.9246C33.0563 28.9467 33.3872 29.0571 33.7411 29.1675ZM39.0046 31.0593C40.1819 31.6924 41.0669 32.9069 41.2977 34.2172C41.367 34.6073 41.8364 40.6729 41.8364 41.1661C41.8364 41.2544 41.744 41.409 41.6363 41.5194L41.4285 41.7108H39.0584H36.6807V39.0387C36.6807 36.0133 36.6576 35.8734 36.142 35.2478C35.6034 34.6 35.6034 34.6147 35.6034 32.0825V29.8079L37.0577 30.3011C37.858 30.5735 38.7353 30.9194 39.0046 31.0593ZM15.5884 34.2835C15.9963 34.6662 15.9963 35.0784 15.6038 35.4612C15.2037 35.8366 14.7728 35.8366 14.3726 35.4465C14.1725 35.2625 14.1341 35.1594 14.1341 34.8871C14.1341 34.6073 14.1725 34.519 14.3957 34.3055C14.6189 34.0921 14.7112 34.0553 15.0036 34.0553C15.2883 34.0553 15.3961 34.0921 15.5884 34.2835ZM34.0336 34.3055C34.2567 34.519 34.2952 34.6073 34.2952 34.8871C34.2952 35.1594 34.2567 35.2625 34.0566 35.4465C33.6565 35.8366 33.2256 35.8366 32.8254 35.4612C32.433 35.0784 32.433 34.6662 32.8408 34.2835C33.0332 34.0921 33.1409 34.0553 33.4256 34.0553C33.7181 34.0553 33.8104 34.0921 34.0336 34.3055ZM24.2377 35.5201C27.9698 35.5201 31.094 35.4907 31.1787 35.4612C31.3018 35.4097 31.3557 35.4612 31.4942 35.7409C32.1021 36.9923 33.8566 37.3162 34.8954 36.3666L35.234 36.0575L35.3417 36.3077C35.4264 36.4991 35.4495 37.0807 35.4495 39.1344V41.7108H24.2146H12.9798V39.1344C12.9798 37.0807 13.0029 36.4991 13.0875 36.3077L13.1953 36.0575L13.5338 36.3666C14.5804 37.3236 16.4118 36.9702 16.9582 35.7115C17.0813 35.4244 17.1121 35.4023 17.2737 35.4612C17.3737 35.498 20.4286 35.5275 24.2377 35.5201Z" fill="#118B50"/>
</g>
</g>
</svg>
