<svg width="49" height="48" viewBox="0 0 49 48" fill="none" xmlns="http://www.w3.org/2000/svg">
<g id="Frame 3873">
<g id="Black">
<path id="Vector" d="M22.6677 5.27346C19.1973 5.86235 16.4424 8.62275 16.0115 11.9573L15.9114 12.7082H14.7957C13.4029 12.7082 13.1566 12.767 12.7026 13.2234C12.1716 13.7461 12.0485 14.4527 12.3871 15.1005C12.7257 15.763 13.1643 15.9617 14.3801 16.0059L15.3189 16.0354L15.342 17.1542C15.3651 18.1995 15.3805 18.2952 15.5498 18.5381C15.8191 18.9135 16.1731 19.1123 16.7348 19.208L17.235 19.289L17.2889 19.7306C17.3504 20.2974 17.7275 21.3795 18.0353 21.9095C18.6586 22.9548 19.5589 23.978 20.3438 24.53L20.7132 24.795V25.5091V26.2304L19.936 26.6206C19.2588 26.9592 19.1357 26.996 18.9741 26.9224C18.8664 26.8782 18.6817 26.8414 18.5586 26.8414C18.2969 26.8414 10.3402 29.5135 9.63226 29.8447C7.97781 30.6103 6.73891 32.2003 6.40032 33.9817C6.2772 34.6147 6.47727 34.9386 6.96976 34.9386C7.30834 34.9386 7.5238 34.6883 7.63154 34.1878C7.83161 33.2161 8.27023 32.4211 9.02435 31.7144C9.59378 31.1697 10.1863 30.8753 11.8715 30.3011L13.3259 29.8079V32.0825C13.3259 34.6147 13.3259 34.6 12.7872 35.2478C12.2717 35.8735 12.2486 36.0133 12.2486 39.0387V41.7108H9.87081H7.50072L7.29295 41.5194C7.0621 41.2912 7.0621 41.3206 7.19292 39.5614C7.29295 38.2805 7.26217 37.9861 7.03901 37.8315C6.84664 37.6916 6.44649 37.7137 6.24642 37.8683C6.08482 37.9934 6.06174 38.1039 5.95401 39.554C5.89245 40.4079 5.86167 41.2544 5.89245 41.4384C5.97709 41.9537 6.35415 42.4395 6.85433 42.6898L7.27756 42.8886L24.8224 42.8738L42.3749 42.8518L42.7057 42.6456C43.1136 42.3954 43.4676 41.8727 43.5368 41.4384C43.583 41.1293 43.2752 36.3004 43.0982 34.5705C42.9751 33.4149 42.6827 32.5904 42.0901 31.7513C41.4591 30.8532 40.5434 30.1318 39.4892 29.7122C38.4965 29.3074 31.0862 26.8414 30.8707 26.8414C30.7476 26.8414 30.5629 26.8782 30.4552 26.9224C30.2936 26.996 30.1704 26.9592 29.4933 26.6206L28.7161 26.2304V25.5091V24.7877L29.1701 24.4564C29.7087 24.0589 30.4706 23.2787 30.8707 22.7192C31.5171 21.8138 32.0403 20.5698 32.1481 19.7159L32.1943 19.289L32.6944 19.208C33.2562 19.1123 33.6101 18.9135 33.8795 18.5381C34.0488 18.2952 34.0642 18.1995 34.0872 17.1542L34.1103 16.0354L35.0491 16.0059C36.2496 15.9691 36.6882 15.7704 37.0268 15.1373C37.3807 14.4601 37.273 13.7608 36.7267 13.2234C36.2726 12.767 36.0264 12.7082 34.6336 12.7082H33.5178L33.4178 11.9647C33.0176 8.87303 30.7553 6.37762 27.5233 5.45013C26.8616 5.25874 26.7384 5.25138 24.9455 5.2293C23.9066 5.22194 22.8832 5.23666 22.6677 5.27346ZM26.7 6.4954C29.6241 7.06221 31.848 9.39567 32.2096 12.2812L32.2635 12.7082H31.5402C30.6398 12.7082 30.4475 12.8112 30.4475 13.297C30.4475 13.5326 30.4936 13.643 30.6322 13.7461C30.8014 13.8786 30.9707 13.8859 33.1946 13.8859C34.7336 13.8859 35.6263 13.9154 35.7263 13.9669C36.0957 14.1509 36.0264 14.6294 35.6186 14.7693C35.2954 14.8723 14.1108 14.8723 13.8107 14.7619C13.5568 14.6736 13.4798 14.5705 13.4798 14.3129C13.4798 13.8638 13.172 13.8859 20.4823 13.8859C25.8227 13.8786 27.1617 13.8638 27.2694 13.7829C27.5849 13.5547 27.5849 13.0394 27.2694 12.8112C27.1617 12.7302 26.1228 12.7155 22.1522 12.7082H17.1657L17.2196 12.2812C17.412 10.7207 18.2661 9.10122 19.405 8.1222C20.3207 7.33456 21.5366 6.73096 22.6754 6.4954C23.4449 6.34082 25.9074 6.34082 26.7 6.4954ZM17.2504 17.0144V18.0081H16.9965C16.5886 18.0081 16.5578 17.9272 16.5578 16.926V16.0206H16.9041H17.2504V17.0144ZM30.9476 17.7726C30.9476 19.311 30.9323 19.5834 30.7937 20.0619C30.3013 21.7476 28.9161 23.3891 27.331 24.1546C26.6769 24.4711 25.4841 24.7288 24.6762 24.7288C23.9374 24.7214 22.9448 24.5374 22.3061 24.2724C21.0979 23.7792 19.8052 22.5352 19.0895 21.1807C18.5355 20.1502 18.4816 19.8263 18.4816 17.8094V16.0206H24.7146H30.9476V17.7726ZM32.8714 16.926C32.8714 17.9272 32.8406 18.0081 32.4328 18.0081H32.1789V17.0144V16.0206H32.5251H32.8714V16.926ZM22.9448 25.7225C24.0067 25.9949 25.2841 25.9949 26.4075 25.7225C26.8539 25.6121 27.2771 25.5017 27.354 25.4796C27.4695 25.4354 27.4849 25.487 27.4849 26.0391C27.4849 26.8561 27.5926 27.0254 28.3621 27.4009C28.6853 27.5554 28.9469 27.71 28.9469 27.7321C28.9469 27.8646 27.5156 28.3284 26.5691 28.5124C25.6534 28.689 23.6835 28.689 22.8062 28.505C21.8905 28.321 20.4823 27.8499 20.4823 27.7321C20.4823 27.71 20.744 27.5554 21.0672 27.4009C21.8367 27.0254 21.9444 26.8561 21.9444 26.0391C21.9444 25.487 21.9598 25.4354 22.0829 25.4796C22.1522 25.5091 22.5446 25.6121 22.9448 25.7225ZM18.7509 28.2474C19.5897 28.7921 21.1518 29.3883 22.4292 29.6533C23.4834 29.8668 25.6919 29.8889 26.7923 29.6902C28.0851 29.4546 29.7164 28.8583 30.6475 28.2621L30.94 28.0781L31.5556 28.2768L32.1789 28.4756V30.9194C32.1789 33.3044 32.1712 33.3707 32.0096 33.6872C31.9095 33.8639 31.7325 34.0774 31.6171 34.1583C31.4017 34.3129 31.3401 34.3129 24.7146 34.3129C18.0892 34.3129 18.0276 34.3129 17.8121 34.1583C17.6967 34.0774 17.5197 33.8639 17.4274 33.6872C17.2581 33.3707 17.2504 33.3044 17.2504 30.9194V28.4756L17.8121 28.2915C18.497 28.0634 18.4739 28.0634 18.7509 28.2474ZM16.0192 30.8826V32.8628H15.4882C15.1958 32.8628 14.888 32.8996 14.8034 32.9437C14.711 32.9879 14.6264 33.0247 14.6033 33.0247C14.5802 33.0247 14.5571 32.2076 14.5571 31.1992V29.381L15.2343 29.1528C15.6036 29.0277 15.9268 28.9172 15.9653 28.9099C15.9961 28.9099 16.0192 29.7932 16.0192 30.8826ZM34.2411 29.1675L34.8721 29.3736V31.1992C34.8721 32.2003 34.8491 33.0247 34.826 33.0247C34.8029 33.0247 34.7182 32.9879 34.6259 32.9437C34.5413 32.8996 34.2334 32.8628 33.941 32.8628H33.4101V30.8753C33.4101 29.3147 33.4332 28.8952 33.5101 28.9246C33.5563 28.9467 33.8872 29.0571 34.2411 29.1675ZM39.5046 31.0593C40.6819 31.6924 41.5669 32.9069 41.7977 34.2172C41.867 34.6073 42.3364 40.6729 42.3364 41.1661C42.3364 41.2544 42.244 41.409 42.1363 41.5194L41.9285 41.7108H39.5584H37.1807V39.0387C37.1807 36.0133 37.1576 35.8735 36.642 35.2478C36.1034 34.6 36.1034 34.6147 36.1034 32.0825V29.8079L37.5577 30.3011C38.358 30.5735 39.2353 30.9194 39.5046 31.0593ZM16.0884 34.2835C16.4963 34.6662 16.4963 35.0785 16.1038 35.4612C15.7037 35.8366 15.2728 35.8366 14.8726 35.4465C14.6725 35.2625 14.6341 35.1594 14.6341 34.8871C14.6341 34.6073 14.6725 34.519 14.8957 34.3055C15.1189 34.0921 15.2112 34.0553 15.5036 34.0553C15.7883 34.0553 15.8961 34.0921 16.0884 34.2835ZM34.5336 34.3055C34.7567 34.519 34.7952 34.6073 34.7952 34.8871C34.7952 35.1594 34.7567 35.2625 34.5566 35.4465C34.1565 35.8366 33.7256 35.8366 33.3254 35.4612C32.933 35.0785 32.933 34.6662 33.3408 34.2835C33.5332 34.0921 33.6409 34.0553 33.9256 34.0553C34.2181 34.0553 34.3104 34.0921 34.5336 34.3055ZM24.7377 35.5201C28.4698 35.5201 31.594 35.4907 31.6787 35.4612C31.8018 35.4097 31.8557 35.4612 31.9942 35.741C32.6021 36.9923 34.3566 37.3162 35.3954 36.3666L35.734 36.0575L35.8417 36.3078C35.9264 36.4991 35.9495 37.0807 35.9495 39.1344V41.7108H24.7146H13.4798V39.1344C13.4798 37.0807 13.5029 36.4991 13.5875 36.3078L13.6953 36.0575L14.0338 36.3666C15.0804 37.3236 16.9118 36.9703 17.4582 35.7115C17.5813 35.4244 17.6121 35.4023 17.7737 35.4612C17.8737 35.498 20.9286 35.5275 24.7377 35.5201Z" fill="#118B50"/>
</g>
</g>
</svg>
