<svg width="49" height="48" viewBox="0 0 49 48" fill="none" xmlns="http://www.w3.org/2000/svg">
<g id="Frame 3874">
<g id="Black">
<path id="Vector" d="M23.7456 5.86548C23.5897 5.9993 23.5684 6.07577 23.5684 6.52185V7.02528L23.0937 7.06989C21.3576 7.22921 19.4798 7.87284 18.0201 8.8096C15.8376 10.2116 14.2007 12.5949 13.8181 14.9336C13.7543 15.3096 13.6905 15.6792 13.6763 15.7557L13.648 15.9023H11.671C9.82864 15.9023 9.68691 15.9086 9.53102 16.0233L9.36096 16.1444L9.32553 26.0474L9.2901 35.944L8.6807 35.9631C8.14925 35.9759 8.05004 36.0013 7.91541 36.1288C7.70991 36.3263 6.03761 41.896 6.10139 42.1636C6.12264 42.2592 6.20768 42.3867 6.29271 42.4504C6.42734 42.5651 6.83833 42.5715 17.4886 42.5906C27.1469 42.6033 28.5641 42.6161 28.6916 42.6989C28.9184 42.8391 33.7369 42.8391 33.9636 42.6989C34.0841 42.6224 34.7077 42.6033 38.0239 42.5906L41.9354 42.5715L42.1055 42.393C42.1976 42.2974 42.2755 42.1381 42.2755 42.0425C42.2755 41.947 42.0417 41.0803 41.7512 40.118C41.2339 38.3847 41.2339 38.3656 41.3614 38.2126C41.4394 38.1234 41.4961 37.9577 41.4961 37.8112C41.4961 37.5754 41.4394 37.5116 40.6812 36.8107L39.8663 36.0587L40.0718 35.6509C40.1781 35.4278 40.3127 35.1347 40.3552 35.0009L40.4473 34.7651H41.6378H42.8282L43.0125 34.5675L43.1967 34.37V32.1396V29.9092L42.9912 29.7244L42.7857 29.5396H41.6165H40.4473L40.3552 29.2974C40.3056 29.17 40.1781 28.8768 40.0647 28.6538L39.8592 28.2459L40.6812 27.5003C41.4677 26.7802 41.4961 26.7484 41.4961 26.4807C41.4961 26.2131 41.4748 26.1876 40.2915 25.117L39.0868 24.0209V20.1591V16.2974L38.9026 16.0998L38.7254 15.9023L37.5421 15.8895L36.3587 15.8704V14.2135V12.5567L38.5695 12.5248C40.745 12.4929 40.7875 12.4929 40.9434 12.3528C41.1772 12.1361 41.1559 11.792 40.8867 11.5753C40.7733 11.4797 39.6112 10.7341 38.3074 9.91206C35.7068 8.27431 35.6572 8.25519 35.2745 8.59294L35.0832 8.765L35.062 12.3336L35.0478 15.9023H34.8777C34.7218 15.9023 34.7006 15.8704 34.6581 15.5008C34.4738 13.9714 33.8644 12.4675 32.9078 11.1802C32.2984 10.3518 30.9733 9.16647 30.0451 8.61843C28.6066 7.75813 26.9556 7.22284 25.3329 7.06989L24.8581 7.02528L24.8297 6.52185C24.8085 6.05666 24.7872 5.9993 24.6101 5.8591C24.3408 5.65518 23.9723 5.65518 23.7456 5.86548ZM25.8501 8.28705C29.1522 8.8096 32.0008 11.0719 33.0212 13.9841C33.2054 14.5067 33.418 15.4562 33.418 15.7493V15.9023L24.192 15.8895L14.9589 15.8704L14.9802 15.5836C15.0723 14.4302 15.6463 13.0155 16.4895 11.8557C16.9501 11.2184 18.2539 10.0395 18.9625 9.61255C21.0529 8.35078 23.3984 7.9047 25.8501 8.28705ZM37.4145 10.7405C37.946 11.0719 38.3782 11.3586 38.3782 11.3777C38.3782 11.3969 37.9176 11.4032 37.3507 11.3905L36.3233 11.3714V10.7341C36.3233 10.3773 36.3516 10.1032 36.3871 10.116C36.4225 10.1224 36.8831 10.4091 37.4145 10.7405ZM37.7972 19.9935L37.8113 22.9631L37.5846 23.0077C37.4145 23.0395 37.124 23.2498 36.5359 23.7788L35.7139 24.5116L35.2604 24.3268C35.0053 24.2248 34.6793 24.1038 34.5376 24.0655L34.2683 23.9827V22.9312V21.8797L34.0628 21.6949L33.8573 21.5101H31.3418C28.9751 21.5101 28.8192 21.5165 28.6633 21.6312C28.5003 21.7459 28.4932 21.7905 28.4578 22.8547L28.4224 23.9508L27.6996 24.2248C27.0193 24.4797 26.9697 24.4861 26.8705 24.3842C26.7713 24.2886 26.7571 24.0145 26.7571 22.4405V20.6116L26.58 20.4587L26.4099 20.2993H24.1778H21.9528L21.7686 20.4969L21.5843 20.6944V22.568C21.5843 24.0974 21.6056 24.4797 21.6906 24.6263C21.7969 24.8175 22.1016 24.9513 22.4205 24.9513C22.5835 24.9513 22.5126 25.0342 21.882 25.6141C20.9041 26.5062 20.9041 26.4552 21.9953 27.4621L22.8386 28.2332L22.6047 28.7111C22.4701 28.9724 22.3355 29.2655 22.3 29.3611L22.2292 29.5396H21.0529C19.8979 29.5396 19.8766 29.5396 19.7066 29.6989L19.5294 29.8518V32.1396C19.5294 34.2999 19.5365 34.4401 19.664 34.5803C19.7916 34.7268 19.8412 34.7332 21.0175 34.7651L22.2363 34.7969L22.4772 35.3322C22.6118 35.6317 22.7181 35.8994 22.7181 35.9249C22.7181 35.9504 19.9829 35.9695 16.6454 35.9631L10.5656 35.944L10.5443 26.5445C10.5372 21.3763 10.5443 17.1067 10.5656 17.0621C10.5868 16.9984 13.3504 16.9856 24.1849 16.9984L37.7759 17.0175L37.7972 19.9935ZM25.4817 22.2685V23.1606L25.2903 23.0714C24.9998 22.9376 24.7801 23.0141 24.3125 23.4283L23.8802 23.8043H23.37H22.8598V22.6381C22.8598 21.9944 22.8811 21.4464 22.9094 21.4273C22.9307 21.4018 23.5259 21.3827 24.2203 21.3827H25.4817V22.2685ZM32.9928 23.6067C32.9928 24.7793 33.007 24.8047 33.9282 25.0788C34.2683 25.1807 34.7998 25.3847 35.1116 25.5248C35.4304 25.665 35.7706 25.7797 35.8698 25.7797C36.0186 25.7797 36.2453 25.6204 36.8476 25.0788L37.6413 24.3778L38.8034 25.4293L39.9655 26.4807L39.2073 27.169C38.3003 27.9974 38.2932 28.0229 38.7609 28.8513C38.9309 29.1508 39.1435 29.6224 39.2285 29.8837C39.4907 30.6356 39.5191 30.6484 40.83 30.6739L41.9212 30.693V32.1523V33.6053L40.8229 33.6308C39.76 33.6499 39.7246 33.6562 39.5616 33.8092C39.4695 33.8984 39.3207 34.166 39.2356 34.4146C39.1506 34.6567 38.938 35.1219 38.7609 35.4469C38.3003 36.3072 38.3074 36.3072 39.2073 37.1357L39.9655 37.8239L38.8034 38.8754L37.6413 39.9268L36.8476 39.2259C36.2453 38.6842 36.0186 38.5249 35.8698 38.5249C35.7706 38.5249 35.4021 38.6523 35.062 38.8053C34.7218 38.9582 34.1833 39.1558 33.8644 39.2514C33.007 39.5063 32.9928 39.5317 32.9928 40.6979V41.6474H31.3276H29.6624V40.6724C29.6624 39.4935 29.6553 39.4744 28.9326 39.2832C28.6491 39.2131 28.0964 39.0092 27.6925 38.8371C27.2957 38.6651 26.9201 38.5249 26.8563 38.5249C26.6438 38.5249 26.4312 38.6715 25.7297 39.296L25.0211 39.9268L23.8519 38.8754L22.6827 37.8239L23.4409 37.142C23.859 36.7597 24.2203 36.3773 24.2416 36.2881C24.277 36.1734 24.1991 35.9631 23.9653 35.5298C23.7881 35.2048 23.5543 34.695 23.448 34.3955C23.1787 33.6562 23.1716 33.6562 21.8182 33.6308L20.734 33.6053V32.1459V30.6866H21.7828C23.1149 30.6866 23.2 30.6484 23.4196 29.9729C23.5047 29.718 23.7385 29.2082 23.9298 28.845C24.1991 28.3543 24.277 28.144 24.2416 28.0165C24.2203 27.9273 23.859 27.545 23.4409 27.1626L22.6827 26.4807L23.8519 25.4293L25.014 24.3778L25.8076 25.0788C26.4524 25.6587 26.6296 25.7797 26.8067 25.7797C26.9201 25.7797 27.3028 25.6523 27.65 25.4994C27.9972 25.34 28.5428 25.1425 28.8617 25.0469C29.2302 24.9386 29.4853 24.8302 29.5561 24.741C29.6412 24.6327 29.6624 24.3969 29.6624 23.6322V22.6572H31.3276H32.9928V23.6067ZM21.4143 37.3778C20.9395 37.8558 20.9183 37.8239 22.9449 39.6528C24.1424 40.7298 24.7943 41.2715 24.9219 41.2969C25.2124 41.3543 25.4391 41.2141 26.247 40.4813L26.9839 39.8185L27.5579 40.0352C27.8767 40.1563 28.2098 40.2837 28.3019 40.3156C28.4578 40.3666 28.4649 40.4048 28.4436 40.8955L28.4224 41.4244L17.9846 41.4435L7.53985 41.4563L7.58945 41.2715C7.61071 41.1695 7.89415 40.2009 8.22011 39.1239L8.80825 37.1548L15.214 37.1229C18.7358 37.1038 21.6339 37.0974 21.6481 37.1038C21.6623 37.1102 21.556 37.2376 21.4143 37.3778ZM40.4969 40.2965C40.6599 40.8318 40.7875 41.3161 40.7875 41.367C40.7875 41.4435 40.3127 41.4563 37.5279 41.4563H34.2683V40.8955V40.3347L34.6439 40.2136C34.8423 40.1499 35.1683 40.0288 35.3596 39.946L35.7068 39.7867L36.5288 40.5259C36.9964 40.9401 37.4287 41.2778 37.535 41.2969C37.8326 41.3607 38.0523 41.2141 39.1577 40.22C39.7175 39.7102 40.1852 39.3023 40.1922 39.3087C40.1993 39.3151 40.334 39.7612 40.4969 40.2965Z" fill="#118B50"/>
<path id="Vector_2" d="M12.9325 20.4204L12.7271 20.6052V22.5743C12.7341 24.0145 12.7554 24.5626 12.8192 24.6391C13.0176 24.8748 13.1735 24.8876 15.3489 24.8876H17.4889L17.6944 24.7028L17.8998 24.518V22.5616V20.6052L17.6944 20.4204L17.4889 20.2356H15.3134H13.138L12.9325 20.4204ZM16.6244 22.5616V23.7405H15.3134H14.0025V22.5616V21.3827H15.3134H16.6244V22.5616Z" fill="#118B50"/>
<path id="Vector_3" d="M12.9325 28.2587L12.7271 28.4435V30.419V32.3881L12.9113 32.5602L13.1026 32.7258H15.2922H17.4889L17.6944 32.541L17.8998 32.3562V30.3999V28.4435L17.6944 28.2587L17.4889 28.0739H15.3134H13.138L12.9325 28.2587ZM16.6244 30.3999V31.5788H15.3134H14.0025V30.3999V29.2209H15.3134H16.6244V30.3999Z" fill="#118B50"/>
<path id="Vector_4" d="M30.6615 27.1817C26.5799 27.6851 24.4541 31.7636 26.665 34.8479C28.4932 37.4097 32.3621 37.9322 34.9485 35.9695C35.7918 35.3259 36.4579 34.3508 36.7484 33.3376C36.9397 32.6557 36.9397 31.6553 36.7484 30.967C36.2382 29.1572 34.5942 27.6788 32.6172 27.2837C32.0078 27.1562 31.2 27.118 30.6615 27.1817ZM32.681 28.4881C34.0699 28.9087 35.154 29.9474 35.5154 31.2028C35.6784 31.7445 35.6713 32.6494 35.5154 33.1401C35.0548 34.542 33.7581 35.6572 32.2417 35.944C30.1159 36.3455 27.9617 35.2303 27.2531 33.3631C27.0335 32.7959 26.9838 31.8783 27.1397 31.3239C27.5649 29.7817 28.9396 28.6028 30.6048 28.3288C31.1717 28.2396 32.0858 28.3097 32.681 28.4881Z" fill="#118B50"/>
</g>
</g>
</svg>
