<svg width="48" height="48" viewBox="0 0 48 48" fill="none" xmlns="http://www.w3.org/2000/svg">
<g id="Frame 3874">
<g id="Black">
<path id="Vector" d="M23.2456 5.86548C23.0897 5.9993 23.0684 6.07577 23.0684 6.52185V7.02528L22.5937 7.06989C20.8576 7.22921 18.9798 7.87284 17.5201 8.8096C15.3376 10.2116 13.7007 12.5949 13.3181 14.9336C13.2543 15.3096 13.1905 15.6792 13.1763 15.7557L13.148 15.9023H11.171C9.32864 15.9023 9.18691 15.9086 9.03102 16.0233L8.86096 16.1444L8.82553 26.0474L8.7901 35.944L8.1807 35.9631C7.64925 35.9759 7.55004 36.0013 7.41541 36.1288C7.20991 36.3263 5.53761 41.896 5.60139 42.1636C5.62264 42.2592 5.70768 42.3867 5.79271 42.4504C5.92734 42.5651 6.33833 42.5715 16.9886 42.5906C26.6469 42.6033 28.0641 42.6161 28.1916 42.6989C28.4184 42.8391 33.2369 42.8391 33.4636 42.6989C33.5841 42.6224 34.2077 42.6033 37.5239 42.5906L41.4354 42.5715L41.6055 42.393C41.6976 42.2974 41.7755 42.1381 41.7755 42.0425C41.7755 41.947 41.5417 41.0803 41.2512 40.118C40.7339 38.3847 40.7339 38.3656 40.8614 38.2126C40.9394 38.1234 40.9961 37.9577 40.9961 37.8112C40.9961 37.5754 40.9394 37.5116 40.1812 36.8107L39.3663 36.0587L39.5718 35.6509C39.6781 35.4278 39.8127 35.1347 39.8552 35.0009L39.9473 34.7651H41.1378H42.3282L42.5125 34.5675L42.6967 34.37V32.1396V29.9092L42.4912 29.7244L42.2857 29.5396H41.1165H39.9473L39.8552 29.2974C39.8056 29.17 39.6781 28.8768 39.5647 28.6538L39.3592 28.2459L40.1812 27.5003C40.9677 26.7802 40.9961 26.7484 40.9961 26.4807C40.9961 26.2131 40.9748 26.1876 39.7915 25.117L38.5868 24.0209V20.1591V16.2974L38.4026 16.0998L38.2254 15.9023L37.0421 15.8895L35.8587 15.8704V14.2135V12.5567L38.0695 12.5248C40.245 12.4929 40.2875 12.4929 40.4434 12.3528C40.6772 12.1361 40.6559 11.792 40.3867 11.5753C40.2733 11.4797 39.1112 10.7341 37.8074 9.91206C35.2068 8.27431 35.1572 8.25519 34.7745 8.59294L34.5832 8.765L34.562 12.3336L34.5478 15.9023H34.3777C34.2218 15.9023 34.2006 15.8704 34.1581 15.5008C33.9738 13.9714 33.3644 12.4675 32.4078 11.1802C31.7984 10.3518 30.4733 9.16647 29.5451 8.61843C28.1066 7.75813 26.4556 7.22284 24.8329 7.06989L24.3581 7.02528L24.3297 6.52185C24.3085 6.05666 24.2872 5.9993 24.1101 5.8591C23.8408 5.65518 23.4723 5.65518 23.2456 5.86548ZM25.3501 8.28705C28.6522 8.8096 31.5008 11.0719 32.5212 13.9841C32.7054 14.5067 32.918 15.4562 32.918 15.7493V15.9023L23.692 15.8895L14.4589 15.8704L14.4802 15.5836C14.5723 14.4302 15.1463 13.0155 15.9895 11.8557C16.4501 11.2184 17.7539 10.0395 18.4625 9.61255C20.5529 8.35078 22.8984 7.9047 25.3501 8.28705ZM36.9145 10.7405C37.446 11.0719 37.8782 11.3586 37.8782 11.3777C37.8782 11.3969 37.4176 11.4032 36.8507 11.3905L35.8233 11.3714V10.7341C35.8233 10.3773 35.8516 10.1032 35.8871 10.116C35.9225 10.1224 36.3831 10.4091 36.9145 10.7405ZM37.2972 19.9935L37.3113 22.9631L37.0846 23.0077C36.9145 23.0395 36.624 23.2498 36.0359 23.7788L35.2139 24.5116L34.7604 24.3268C34.5053 24.2248 34.1793 24.1038 34.0376 24.0655L33.7683 23.9827V22.9312V21.8797L33.5628 21.6949L33.3573 21.5101H30.8418C28.4751 21.5101 28.3192 21.5165 28.1633 21.6312C28.0003 21.7459 27.9932 21.7905 27.9578 22.8547L27.9224 23.9508L27.1996 24.2248C26.5193 24.4797 26.4697 24.4861 26.3705 24.3842C26.2713 24.2886 26.2571 24.0145 26.2571 22.4405V20.6116L26.08 20.4587L25.9099 20.2993H23.6778H21.4528L21.2686 20.4969L21.0843 20.6944V22.568C21.0843 24.0974 21.1056 24.4797 21.1906 24.6263C21.2969 24.8175 21.6016 24.9513 21.9205 24.9513C22.0835 24.9513 22.0126 25.0342 21.382 25.6141C20.4041 26.5062 20.4041 26.4552 21.4953 27.4621L22.3386 28.2332L22.1047 28.7111C21.9701 28.9724 21.8355 29.2655 21.8 29.3611L21.7292 29.5396H20.5529C19.3979 29.5396 19.3766 29.5396 19.2066 29.6989L19.0294 29.8518V32.1396C19.0294 34.2999 19.0365 34.4401 19.164 34.5803C19.2916 34.7268 19.3412 34.7332 20.5175 34.7651L21.7363 34.7969L21.9772 35.3322C22.1118 35.6317 22.2181 35.8994 22.2181 35.9249C22.2181 35.9504 19.4829 35.9695 16.1454 35.9631L10.0656 35.944L10.0443 26.5445C10.0372 21.3763 10.0443 17.1067 10.0656 17.0621C10.0868 16.9984 12.8504 16.9856 23.6849 16.9984L37.2759 17.0175L37.2972 19.9935ZM24.9817 22.2685V23.1606L24.7903 23.0714C24.4998 22.9376 24.2801 23.0141 23.8125 23.4283L23.3802 23.8043H22.87H22.3598V22.6381C22.3598 21.9944 22.3811 21.4464 22.4094 21.4273C22.4307 21.4018 23.0259 21.3827 23.7203 21.3827H24.9817V22.2685ZM32.4928 23.6067C32.4928 24.7793 32.507 24.8047 33.4282 25.0788C33.7683 25.1807 34.2998 25.3847 34.6116 25.5248C34.9304 25.665 35.2706 25.7797 35.3698 25.7797C35.5186 25.7797 35.7453 25.6204 36.3476 25.0788L37.1413 24.3778L38.3034 25.4293L39.4655 26.4807L38.7073 27.169C37.8003 27.9974 37.7932 28.0229 38.2609 28.8513C38.4309 29.1508 38.6435 29.6224 38.7285 29.8837C38.9907 30.6356 39.0191 30.6484 40.33 30.6739L41.4212 30.693V32.1523V33.6053L40.3229 33.6308C39.26 33.6499 39.2246 33.6562 39.0616 33.8092C38.9695 33.8984 38.8207 34.166 38.7356 34.4146C38.6506 34.6567 38.438 35.1219 38.2609 35.4469C37.8003 36.3072 37.8074 36.3072 38.7073 37.1357L39.4655 37.8239L38.3034 38.8754L37.1413 39.9268L36.3476 39.2259C35.7453 38.6842 35.5186 38.5249 35.3698 38.5249C35.2706 38.5249 34.9021 38.6523 34.562 38.8053C34.2218 38.9582 33.6833 39.1558 33.3644 39.2514C32.507 39.5063 32.4928 39.5317 32.4928 40.6979V41.6474H30.8276H29.1624V40.6724C29.1624 39.4935 29.1553 39.4744 28.4326 39.2832C28.1491 39.2131 27.5964 39.0092 27.1925 38.8371C26.7957 38.6651 26.4201 38.5249 26.3563 38.5249C26.1438 38.5249 25.9312 38.6715 25.2297 39.296L24.5211 39.9268L23.3519 38.8754L22.1827 37.8239L22.9409 37.142C23.359 36.7597 23.7203 36.3773 23.7416 36.2881C23.777 36.1734 23.6991 35.9631 23.4653 35.5298C23.2881 35.2048 23.0543 34.695 22.948 34.3955C22.6787 33.6562 22.6716 33.6562 21.3182 33.6308L20.234 33.6053V32.1459V30.6866H21.2828C22.6149 30.6866 22.7 30.6484 22.9196 29.9729C23.0047 29.718 23.2385 29.2082 23.4298 28.845C23.6991 28.3543 23.777 28.144 23.7416 28.0165C23.7203 27.9273 23.359 27.545 22.9409 27.1626L22.1827 26.4807L23.3519 25.4293L24.514 24.3778L25.3076 25.0788C25.9524 25.6587 26.1296 25.7797 26.3067 25.7797C26.4201 25.7797 26.8028 25.6523 27.15 25.4994C27.4972 25.34 28.0428 25.1425 28.3617 25.0469C28.7302 24.9386 28.9853 24.8302 29.0561 24.741C29.1412 24.6327 29.1624 24.3969 29.1624 23.6322V22.6572H30.8276H32.4928V23.6067ZM20.9143 37.3778C20.4395 37.8558 20.4183 37.8239 22.4449 39.6528C23.6424 40.7298 24.2943 41.2715 24.4219 41.2969C24.7124 41.3543 24.9391 41.2141 25.747 40.4813L26.4839 39.8185L27.0579 40.0352C27.3767 40.1563 27.7098 40.2837 27.8019 40.3156C27.9578 40.3666 27.9649 40.4048 27.9436 40.8955L27.9224 41.4244L17.4846 41.4435L7.03985 41.4563L7.08945 41.2715C7.11071 41.1695 7.39415 40.2009 7.72011 39.1239L8.30825 37.1548L14.714 37.1229C18.2358 37.1038 21.1339 37.0974 21.1481 37.1038C21.1623 37.1102 21.056 37.2376 20.9143 37.3778ZM39.9969 40.2965C40.1599 40.8318 40.2875 41.3161 40.2875 41.367C40.2875 41.4435 39.8127 41.4563 37.0279 41.4563H33.7683V40.8955V40.3347L34.1439 40.2136C34.3423 40.1499 34.6683 40.0288 34.8596 39.946L35.2068 39.7867L36.0288 40.5259C36.4964 40.9401 36.9287 41.2778 37.035 41.2969C37.3326 41.3607 37.5523 41.2141 38.6577 40.22C39.2175 39.7102 39.6852 39.3023 39.6922 39.3087C39.6993 39.3151 39.834 39.7612 39.9969 40.2965Z" fill="#118B50"/>
<path id="Vector_2" d="M12.4325 20.4204L12.2271 20.6052V22.5743C12.2341 24.0145 12.2554 24.5626 12.3192 24.6391C12.5176 24.8748 12.6735 24.8876 14.8489 24.8876H16.9889L17.1944 24.7028L17.3998 24.518V22.5616V20.6052L17.1944 20.4204L16.9889 20.2356H14.8134H12.638L12.4325 20.4204ZM16.1244 22.5616V23.7405H14.8134H13.5025V22.5616V21.3827H14.8134H16.1244V22.5616Z" fill="#118B50"/>
<path id="Vector_3" d="M12.4325 28.2587L12.2271 28.4435V30.419V32.3881L12.4113 32.5602L12.6026 32.7258H14.7922H16.9889L17.1944 32.541L17.3998 32.3562V30.3999V28.4435L17.1944 28.2587L16.9889 28.0739H14.8134H12.638L12.4325 28.2587ZM16.1244 30.3999V31.5788H14.8134H13.5025V30.3999V29.2209H14.8134H16.1244V30.3999Z" fill="#118B50"/>
<path id="Vector_4" d="M30.1615 27.1817C26.0799 27.6851 23.9541 31.7636 26.165 34.8479C27.9932 37.4097 31.8621 37.9322 34.4485 35.9695C35.2918 35.3259 35.9579 34.3508 36.2484 33.3376C36.4397 32.6557 36.4397 31.6553 36.2484 30.967C35.7382 29.1572 34.0942 27.6788 32.1172 27.2837C31.5078 27.1562 30.7 27.118 30.1615 27.1817ZM32.181 28.4881C33.5699 28.9087 34.654 29.9474 35.0154 31.2028C35.1784 31.7445 35.1713 32.6494 35.0154 33.1401C34.5548 34.542 33.2581 35.6572 31.7417 35.944C29.6159 36.3455 27.4617 35.2303 26.7531 33.3631C26.5335 32.7959 26.4838 31.8783 26.6397 31.3239C27.0649 29.7817 28.4396 28.6028 30.1048 28.3288C30.6717 28.2396 31.5858 28.3097 32.181 28.4881Z" fill="#118B50"/>
</g>
</g>
</svg>
