<svg width="48" height="48" viewBox="0 0 48 48" fill="none" xmlns="http://www.w3.org/2000/svg">
<g id="Black">
<path id="Vector" d="M13.5938 6.95788L3.51563 13.9423L2.7 13.9516C1.94063 13.9516 1.875 13.9704 1.69688 14.1954C1.50938 14.4298 1.5 14.5704 1.5 16.211C1.5 17.1766 1.52813 18.0391 1.55625 18.1235C1.6875 18.4423 2.1 18.5454 3.36563 18.5454H4.58438L4.6125 19.9048C4.65 21.536 4.66875 21.5641 5.57812 21.6204L6.1875 21.6579V29.2891V36.9204H5.63438C5.23125 36.9204 5.025 36.9673 4.86563 37.0985C4.65 37.2673 4.64062 37.3423 4.6125 38.6454L4.58438 40.0141H3.27188C2.00625 40.0141 1.95 40.0235 1.73438 40.2485C1.50938 40.4641 1.5 40.5204 1.5 41.7954V43.1079H0.99375C0.628125 43.1079 0.43125 43.1641 0.24375 43.3048L0 43.4923V45.4141C0 47.2048 0.009375 47.336 0.1875 47.5141C0.375 47.7016 0.496875 47.7016 24 47.7016C47.5031 47.7016 47.625 47.7016 47.8125 47.5141C47.9906 47.336 48 47.2048 48 45.4141V43.4923L47.7563 43.3048C47.5688 43.1641 47.3719 43.1079 47.0063 43.1079H46.5V41.7954C46.5 40.5204 46.4906 40.4641 46.2656 40.2485C46.05 40.0235 45.9938 40.0141 44.7281 40.0141H43.4156L43.3875 38.6454C43.3594 37.3423 43.35 37.2673 43.1344 37.0985C42.975 36.9673 42.7688 36.9204 42.3656 36.9204H41.8125V29.2798V21.6391H42.2625C43.3031 21.6391 43.4062 21.4704 43.4062 19.7641V18.5454H44.625C45.9 18.5454 46.3125 18.4516 46.4438 18.1235C46.4719 18.0391 46.5 17.1766 46.5 16.211C46.5 14.5704 46.4906 14.4298 46.3031 14.1954C46.125 13.9704 46.0688 13.9516 45.3094 13.9516H44.5031L34.4625 6.99538C25.8281 1.00475 24.3656 0.0297546 24.0469 0.00162888C23.6906 -0.0264969 23.2875 0.236004 13.5938 6.95788ZM32.9531 7.811L41.7469 13.9048L29.6906 13.9516C18.6938 13.9985 17.6156 14.0079 17.475 14.1485C17.25 14.3735 17.2781 14.9641 17.5219 15.2079L17.7281 15.4048L31.3594 15.4329L45 15.4516V16.2485V17.0454H24H3V16.2485V15.4516L9.27188 15.4329C15.2906 15.4048 15.5531 15.3954 15.7406 15.2266C15.975 15.011 16.0031 14.4579 15.8063 14.1766C15.675 14.0079 15.4875 13.9985 10.9594 13.9516L6.25313 13.9048L15.0563 7.79225C19.8938 4.436 23.925 1.68913 24.0094 1.6985C24.0844 1.70788 28.1063 4.45475 32.9531 7.811ZM12.375 19.3423V20.1391H9.23438H6.09375V19.3423V18.5454H9.23438H12.375V19.3423ZM19.4062 19.8954C19.4062 21.2454 19.4062 21.2548 19.65 21.4423C19.8375 21.5829 20.0344 21.6391 20.4 21.6391H20.9062V29.2798V36.9204H20.4C20.0344 36.9204 19.8375 36.9766 19.65 37.1173C19.4062 37.3048 19.4062 37.3141 19.4062 38.6641V40.0141H16.6406H13.875V38.7016C13.875 37.4266 13.8656 37.3704 13.6406 37.1548C13.4531 36.9579 13.3219 36.9204 12.8438 36.9204H12.2813V29.2798V21.6391H12.8438C13.3219 21.6391 13.4531 21.6016 13.6406 21.4048C13.8656 21.1891 13.875 21.1329 13.875 19.8579V18.5454H16.6406H19.4062V19.8954ZM27.0938 19.3423V20.1391H24H20.9062V19.3423V18.5454H24H27.0938V19.3423ZM34.125 19.8579C34.125 21.1329 34.1344 21.1891 34.3594 21.4048C34.5469 21.6016 34.6781 21.6391 35.1562 21.6391H35.7188V29.2798V36.9204H35.1562C34.6781 36.9204 34.5469 36.9579 34.3594 37.1548C34.1344 37.3704 34.125 37.4266 34.125 38.7016V40.0141H31.3594H28.5938V38.6641C28.5938 37.3141 28.5938 37.3048 28.35 37.1173C28.1625 36.9766 27.9656 36.9204 27.6 36.9204H27.0938V29.2798V21.6391H27.6C27.9656 21.6391 28.1625 21.5829 28.35 21.4423C28.5938 21.2548 28.5938 21.2454 28.5938 19.8954V18.5454H31.3594H34.125V19.8579ZM41.9062 19.3423V20.1391H38.7656H35.625V19.3423V18.5454H38.7656H41.9062V19.3423ZM10.7812 29.2798V36.9204H9.23438H7.6875V29.2798V21.6391H9.23438H10.7812V29.2798ZM25.5938 29.2798V36.9204H24H22.4062V29.2798V21.6391H24H25.5938V29.2798ZM40.3125 29.2798V36.9204H38.7656H37.2188V29.2798V21.6391H38.7656H40.3125V29.2798ZM12.375 39.2173V40.0141H9.23438H6.09375V39.2173V38.4204H9.23438H12.375V39.2173ZM27.0938 39.2173V40.0141H24H20.9062V39.2173V38.4204H24H27.0938V39.2173ZM41.9062 39.2173V40.0141H38.7656H35.625V39.2173V38.4204H38.7656H41.9062V39.2173ZM45 42.311V43.1079H24H3V42.311V41.5141H24H45V42.311ZM46.5938 45.4048V46.2016H24H1.40625V45.4048V44.6079H24H46.5938V45.4048Z" fill="#118B50"/>
<path id="Vector_2" d="M23.4842 7.75476C22.4248 8.02663 21.7217 8.90788 21.731 9.96725C21.731 11.336 22.6404 12.2641 23.9998 12.2641C25.3592 12.2641 26.2685 11.336 26.2685 9.96725C26.2779 9.086 25.8185 8.35475 25.0217 7.95163C24.6279 7.74538 23.8779 7.65163 23.4842 7.75476ZM24.5435 9.47975C25.0217 9.92038 24.6748 10.7641 24.0092 10.7641C23.1185 10.7641 22.9592 9.54538 23.8123 9.236C24.0185 9.161 24.2998 9.25475 24.5435 9.47975Z" fill="#118B50"/>
</g>
</svg>
