<svg width="49" height="48" viewBox="0 0 49 48" fill="none" xmlns="http://www.w3.org/2000/svg">
<g id="Frame 3876">
<g id="Black">
<path id="Vector" d="M14.9035 3.8009C14.5671 4.03066 14.4358 4.21118 14.0009 5.03175C12.7782 7.34573 11.3668 9.03609 9.24972 10.7347C8.06809 11.6865 7.97783 11.8506 7.97783 13.1143V14.0415H9.43025H10.8745L9.75027 15.1903C8.7902 16.175 8.58505 16.4294 8.32247 16.9791C8.05168 17.5535 8.01886 17.6848 7.99424 18.4479L7.96142 19.2931H9.41384H10.8745L9.76668 20.4255C8.83943 21.3773 8.60967 21.6645 8.33888 22.2061C8.04347 22.8051 8.01886 22.9036 7.99424 23.6995L7.96142 24.5447H11.5802H15.1989V25.8494V27.1459L14.6983 27.1951C14.1486 27.2444 13.5249 27.5152 13.0326 27.9254C12.5977 28.2783 12.1135 29.0578 11.9987 29.5748C11.9084 29.9604 11.8592 30.0261 11.4899 30.2476C10.9729 30.5594 10.5052 31.0764 10.218 31.6754C10.0047 32.0939 9.98824 32.217 9.98824 33.0786C9.98824 33.973 10.0047 34.055 10.2426 34.5392L10.497 35.0479H10.2836C9.56154 35.0561 8.63429 35.9916 8.63429 36.7137C8.63429 36.8203 8.59326 37.0337 8.54403 37.1814C8.39632 37.5917 8.10091 37.6737 6.68952 37.6737C5.32737 37.6737 5.03196 37.7558 4.55603 38.2563C4.19497 38.642 4.03906 39.0523 4.03906 39.6431C4.03906 40.2339 4.19497 40.6442 4.55603 41.0298C5.07299 41.5714 5.25352 41.6124 7.40342 41.6124H9.33178L9.30716 42.1212C9.29075 42.4002 9.31537 42.7694 9.37281 42.9499C9.48769 43.352 9.98003 43.8936 10.3985 44.0823C10.7103 44.23 11.3422 44.2382 24.0447 44.2382C38.7494 44.2382 37.6581 44.2793 38.2489 43.7213C38.6428 43.3438 38.8315 42.8925 38.8315 42.2853C38.8315 41.6863 38.6756 41.2678 38.3145 40.8821C37.8386 40.3816 37.5432 40.2995 36.181 40.2995C34.8107 40.2995 34.4414 40.2093 34.3511 39.8564C34.2609 39.4954 34.384 39.2328 34.6876 39.1015C34.9173 39.0112 35.6969 38.9866 39.1187 38.9866C43.6893 38.9866 43.599 38.9948 44.157 38.4697C44.5591 38.084 44.7396 37.6491 44.7396 37.0173C44.7396 36.3854 44.5591 35.9505 44.157 35.5649C43.6401 35.0807 43.4678 35.0479 41.3425 35.0479H39.4223L39.3649 34.81C39.291 34.4735 38.8315 33.8581 38.4458 33.5709C38.0437 33.2755 37.5186 33.0786 37.1411 33.0786H36.8621V30.822V28.5655L37.3791 28.8363C37.8632 29.0906 37.9289 29.0988 38.8315 29.0988C39.7095 29.0988 39.808 29.0824 40.2675 28.8609C40.8911 28.5491 41.523 27.9254 41.8266 27.3018C42.0235 26.8915 42.0728 26.6782 42.0974 26.0381L42.1302 25.275L42.5159 24.8894C42.7292 24.676 43.0164 24.2821 43.1477 24.0114C43.3693 23.5518 43.3857 23.4534 43.3857 22.5754C43.3775 21.5168 43.2872 21.2214 42.7374 20.4993C42.442 20.1055 42.442 20.1055 42.5815 19.8429C42.6718 19.6706 42.7292 19.3177 42.7538 18.8254C42.7949 17.9392 42.6472 17.3648 42.2287 16.7822C41.9989 16.4458 41.9743 16.3719 42.0482 16.1586C42.0974 16.0273 42.122 15.576 42.0974 15.1575C42.0646 14.3205 41.8676 13.7954 41.3589 13.1881C41.006 12.7532 40.2265 12.2691 39.7095 12.1542C39.3238 12.064 39.2582 12.0147 39.0366 11.6455C38.7248 11.1285 38.2079 10.6608 37.6088 10.3736C37.1903 10.1603 37.0673 10.1438 36.2057 10.1438C35.344 10.1438 35.221 10.1603 34.8025 10.3736C34.2034 10.6608 33.6865 11.1285 33.3747 11.6455C33.1531 12.0147 33.0875 12.064 32.7018 12.1542C32.1848 12.2691 31.4053 12.7532 31.0524 13.1881C30.5437 13.7954 30.3467 14.3205 30.3139 15.1575C30.2893 15.576 30.3139 16.0273 30.3631 16.1668C30.437 16.3719 30.4206 16.4458 30.2647 16.6591C30.158 16.7986 30.0103 17.0694 29.9282 17.2581C29.838 17.4551 29.7641 17.6274 29.7559 17.6438C29.7395 17.652 29.6082 17.5781 29.4605 17.4633C29.3128 17.3484 28.9271 17.1268 28.6153 16.9791C28.1066 16.7412 27.9507 16.7083 27.1793 16.6837C26.4572 16.6591 26.2274 16.6837 25.7925 16.8314C25.1935 17.0284 24.4878 17.4551 24.0529 17.8735L23.7493 18.1607L23.6919 17.8161C23.5606 17.0448 23.1093 16.3637 21.944 15.1657L20.8281 14.0415H22.2805H23.7329V13.1143C23.7329 11.8424 23.6508 11.7029 22.3707 10.669C20.2372 8.94583 18.8751 7.26368 17.5211 4.68711C17.0698 3.83372 16.6431 3.53832 15.8554 3.53832C15.363 3.53832 15.2563 3.57114 14.9035 3.8009ZM16.4954 5.79487C17.7591 8.16629 19.5233 10.2669 21.5584 11.826C22.141 12.2773 22.3379 12.4578 22.3379 12.5809C22.3379 12.6137 21.7717 12.6466 21.0824 12.6466C20.3849 12.6466 19.3674 12.6712 18.8258 12.704L17.8247 12.7532V13.4015V14.0415H18.3007H18.7766L20.3849 15.6662C21.8045 17.0858 22.2559 17.6356 22.2559 17.9392C22.2559 17.9638 21.263 17.9802 20.0403 17.9802H17.8247V18.6367V19.2931H18.3007H18.7684L20.3029 20.8276L21.8456 22.3702L21.7881 22.7969L21.7389 23.2318H15.601C12.2202 23.2318 9.45487 23.2154 9.45487 23.1908C9.45487 22.8872 9.90618 22.3374 11.3258 20.9178L12.9341 19.2931H13.41H13.886V18.6367V17.9802H11.6704C10.456 17.9802 9.45487 17.9638 9.45487 17.9392C9.45487 17.6356 9.90618 17.0858 11.3258 15.6662L12.9341 14.0415H13.41H13.886V13.3851V12.7286H11.6294C8.88046 12.7286 8.9297 12.7614 10.3165 11.6947C12.1546 10.2833 14.0009 8.08424 15.1168 5.95898C15.8307 4.62146 15.8718 4.61326 16.4954 5.79487ZM36.9852 11.6537C37.4775 11.8752 37.9042 12.3922 38.0684 12.9748L38.1996 13.4671H38.7412C40.3003 13.4753 41.1783 14.9113 40.4809 16.2981L40.2347 16.774L40.6532 17.1515C41.1619 17.6028 41.3671 18.0377 41.3753 18.6203C41.3753 19.1536 41.2276 19.5229 40.8009 20.0316C40.6203 20.245 40.4726 20.4583 40.4726 20.4993C40.4726 20.5322 40.6121 20.6388 40.7763 20.7291C41.5886 21.1558 42.0235 21.804 42.0317 22.559C42.0317 23.3467 41.6297 23.9621 40.8419 24.356C40.6203 24.4709 40.4234 24.5693 40.4152 24.5775C40.3988 24.5857 40.4644 24.7909 40.5547 25.0206C40.8747 25.8494 40.7106 26.6782 40.1362 27.228C39.3731 27.9501 38.1832 27.9172 37.4611 27.1623C37.0344 26.711 36.9278 26.3418 36.8785 25.2258L36.8375 24.2247L38.1258 22.6164C38.8397 21.7302 39.4059 20.9917 39.3895 20.9835C39.3731 20.9753 39.1515 20.7948 38.8889 20.5814C38.6181 20.3681 38.3638 20.1957 38.3145 20.1957C38.2571 20.2039 37.9124 20.5978 37.5432 21.0737L36.8621 21.9435V18.6531V15.3544H36.2057H35.5492V17.332V19.3095L34.8517 18.4397C34.466 17.9638 34.1132 17.5699 34.0804 17.5699C34.0393 17.5699 33.7932 17.7423 33.5224 17.9556C33.2598 18.1689 33.03 18.3495 33.0218 18.3577C33.0054 18.3659 33.5716 19.1044 34.2773 19.9824L35.5656 21.5907L35.5328 23.9047C35.5 26.473 35.4753 26.6043 34.9502 27.1623C34.5891 27.548 34.1214 27.7449 33.5798 27.7449C33.0136 27.7449 32.5623 27.5398 32.1766 27.1131L31.8812 26.7849L32.0453 26.1776C32.2505 25.3981 32.3325 23.2564 32.1848 22.3456C32.0453 21.4512 31.7335 20.5158 31.3068 19.687C30.9704 19.0387 30.9458 18.9403 31.0032 18.5792C31.0935 17.9392 31.274 17.5946 31.7335 17.1679L32.1684 16.774L31.9304 16.2981C31.233 14.9113 32.1274 13.4425 33.6619 13.4589H34.2116L34.3429 12.9748C34.5973 12.0722 35.3194 11.4978 36.2057 11.4978C36.4682 11.4978 36.7965 11.5634 36.9852 11.6537ZM28.2296 18.3495C29.28 18.8746 30.117 20.0398 30.5929 21.6317C30.8555 22.5343 30.954 24.2575 30.7898 25.2504C30.4534 27.3428 29.2225 29.1645 27.8604 29.583L27.6717 29.6404V27.2444V24.8483L28.9518 23.2564C29.6575 22.3784 30.2154 21.6481 30.199 21.6399C30.1826 21.6317 29.9611 21.4512 29.6985 21.2379C29.4277 21.0245 29.1733 20.8522 29.1241 20.8522C29.0666 20.8604 28.722 21.2543 28.3527 21.7302L27.6717 22.6V21.6071V20.606H27.0152H26.3587V23.0841V25.5704L25.6612 24.5201C25.1935 23.8308 24.9227 23.4944 24.8571 23.5272C24.5699 23.6995 23.8149 24.2247 23.8149 24.2575C23.8149 24.2821 24.3894 25.1601 25.0868 26.2105L26.3587 28.1142V28.8773C26.3587 29.6322 26.3587 29.6404 26.1782 29.583C24.8078 29.1645 23.577 27.3428 23.2405 25.2504C23.0764 24.2575 23.1749 22.5343 23.4375 21.6317C23.9134 20.0398 24.7504 18.8746 25.8007 18.3495C26.3177 18.0951 26.449 18.0623 27.0152 18.0623C27.5814 18.0623 27.7127 18.0951 28.2296 18.3495ZM22.6169 19.8593C22.461 20.1711 22.3379 20.4665 22.3379 20.5158C22.3379 20.7455 22.141 20.6224 21.5091 19.9824L20.8198 19.2931H21.862H22.8959L22.6169 19.8593ZM21.8292 25.275C22.0753 27.1213 22.9533 28.9183 24.1104 29.9522C24.6355 30.4117 25.5135 30.9123 25.9977 31.0108L26.3177 31.0764L26.3423 33.0622L26.3587 35.0479H25.095H23.8314L24.0857 34.531C24.3319 34.0468 24.3483 33.973 24.3483 33.0786C24.3483 32.2006 24.3319 32.1021 24.1104 31.6426C23.7985 31.019 23.1749 30.3871 22.5513 30.0835C22.141 29.8866 21.9276 29.8374 21.2876 29.8127L20.5244 29.7799L20.1388 29.3942C19.6546 28.9101 18.9735 28.5737 18.3581 28.508C17.9396 28.467 17.8412 28.4178 17.5375 28.106C17.3406 27.9172 17.0288 27.6793 16.8483 27.5808L16.5118 27.4167V25.9807V24.5447H19.1213H21.7307L21.8292 25.275ZM32.4884 28.9922C32.8741 29.1235 33.1121 29.1481 33.7439 29.1235C34.425 29.0906 34.5891 29.0578 35.0404 28.8281L35.5492 28.5655V30.3297V32.1021L35.2948 31.9626C35.1553 31.897 34.8435 31.6426 34.6055 31.3964C34.3676 31.1585 33.9573 30.8548 33.6865 30.7318C33.2434 30.5102 33.1367 30.4938 32.2669 30.4938C31.4053 30.4938 31.2822 30.5102 30.8719 30.7154C29.9447 31.1749 29.3046 31.9462 29.0584 32.8898C28.96 33.3001 28.8779 33.4478 28.6646 33.6037C28.3281 33.8581 27.9507 34.3669 27.7947 34.7771C27.6963 35.0561 27.6799 34.9002 27.6963 33.0786L27.7127 31.0764L28.0327 31.0108C28.96 30.8138 30.2072 29.8538 30.8719 28.8363L31.2412 28.2619L31.6268 28.5409C31.8402 28.6968 32.2259 28.8937 32.4884 28.9922ZM15.921 28.6968C16.2656 28.8363 16.6923 29.2219 16.9303 29.6076C17.0944 29.8702 17.119 29.8784 17.6688 29.8784C18.6043 29.8784 19.1869 30.2394 19.6054 31.0682C19.7203 31.2897 19.8187 31.4867 19.8269 31.4949C19.8352 31.5113 20.0403 31.4374 20.2865 31.3472C21.1399 31.0272 21.8948 31.1749 22.4774 31.7821C22.8303 32.1431 22.9944 32.5698 22.9944 33.095C22.9862 33.6037 22.8385 33.9402 22.3379 34.5802L21.9687 35.0479H17.2011H12.4336L12.0069 34.5556C11.4899 33.9648 11.3422 33.6284 11.3422 33.0622C11.3504 32.1924 11.9248 31.4703 12.8192 31.2159L13.3116 31.0846V30.543C13.3198 29.7143 13.6972 29.0824 14.4194 28.705C14.7394 28.5327 15.5271 28.5327 15.921 28.6968ZM32.989 31.979C33.3418 32.1267 33.6865 32.4303 33.9244 32.816C34.0147 32.9637 34.1788 33.095 34.3019 33.1278C35.0076 33.2755 35.3112 33.5709 35.5164 34.3094C35.5902 34.5802 35.6641 34.8018 35.6805 34.8018C35.6969 34.8018 35.8938 34.7279 36.1236 34.6376C36.7554 34.3915 37.1739 34.4161 37.6088 34.7361L37.9699 35.0069L33.6701 35.0315C31.3068 35.0397 29.3456 35.0315 29.321 34.9987C29.239 34.9166 29.7149 34.5638 30.0513 34.4653L30.3796 34.3669V33.8253C30.3878 32.9965 30.7652 32.3647 31.4873 31.9872C31.8074 31.8149 32.5951 31.8149 32.989 31.979ZM42.9754 36.4757C43.279 36.607 43.4021 36.8696 43.3118 37.2306C43.197 37.6655 43.0739 37.6737 38.5279 37.6737C33.826 37.6737 33.9901 37.6573 33.3993 38.3138C33.0218 38.724 32.8987 39.1343 32.9398 39.7908L32.9644 40.2995H32.2915H31.6104V40.956V41.6124H34.1952C37.0344 41.6124 37.297 41.6452 37.4037 42.0555C37.494 42.4166 37.3709 42.6792 37.0673 42.8104C36.6406 42.9828 11.4817 42.9828 11.055 42.8104C10.7514 42.6792 10.6283 42.4166 10.7186 42.0555C10.817 41.6699 11.137 41.6124 13.2705 41.6124H15.1989V40.956V40.2995H10.6447C6.87005 40.2995 6.03306 40.2831 5.8033 40.1846C5.49969 40.0534 5.3766 39.7908 5.46687 39.4297C5.55713 39.0769 5.92639 38.9866 7.29675 38.9866C8.30606 38.9866 8.56864 38.9538 8.83943 38.8307C9.42204 38.5599 9.94721 37.846 9.94721 37.3209C9.94721 36.9352 10.1277 36.5906 10.3903 36.4757C10.7842 36.3034 42.5651 36.3034 42.9754 36.4757Z" fill="#118B50"/>
<path id="Vector_2" d="M15.1987 38.3302V38.9867H16.3475C17.3897 38.9867 17.5128 39.0031 17.6605 39.1508C17.7589 39.2493 17.8246 39.4216 17.8246 39.5775C17.8246 39.9632 18.1856 40.5129 18.5959 40.7509C18.9324 40.9478 18.998 40.956 20.3519 40.956H21.7633V40.2996V39.6431H20.6145C19.5724 39.6431 19.4493 39.6267 19.3016 39.479C19.2031 39.3806 19.1375 39.2082 19.1375 39.0523C19.1375 38.6667 18.7764 38.1169 18.3662 37.8789C18.0297 37.682 17.9641 37.6738 16.6101 37.6738H15.1987V38.3302Z" fill="#118B50"/>
</g>
</g>
</svg>
