<svg width="48" height="48" viewBox="0 0 48 48" fill="none" xmlns="http://www.w3.org/2000/svg">
<g id="Frame 3876">
<g id="Black">
<path id="Vector" d="M14.4035 3.8009C14.0671 4.03066 13.9358 4.21118 13.5009 5.03175C12.2782 7.34573 10.8668 9.03609 8.74972 10.7347C7.56809 11.6865 7.47783 11.8506 7.47783 13.1143V14.0415H8.93025H10.3745L9.25027 15.1903C8.2902 16.175 8.08505 16.4294 7.82247 16.9791C7.55168 17.5535 7.51886 17.6848 7.49424 18.4479L7.46142 19.2931H8.91384H10.3745L9.26668 20.4255C8.33943 21.3773 8.10967 21.6645 7.83888 22.2061C7.54347 22.8051 7.51886 22.9036 7.49424 23.6995L7.46142 24.5447H11.0802H14.6989V25.8494V27.1459L14.1983 27.1951C13.6486 27.2444 13.0249 27.5152 12.5326 27.9254C12.0977 28.2783 11.6135 29.0578 11.4987 29.5748C11.4084 29.9604 11.3592 30.0261 10.9899 30.2476C10.4729 30.5594 10.0052 31.0764 9.718 31.6754C9.50465 32.0939 9.48824 32.217 9.48824 33.0786C9.48824 33.973 9.50465 34.055 9.74262 34.5392L9.997 35.0479H9.78365C9.06154 35.0561 8.13429 35.9916 8.13429 36.7137C8.13429 36.8203 8.09326 37.0337 8.04403 37.1814C7.89632 37.5917 7.60091 37.6737 6.18952 37.6737C4.82737 37.6737 4.53196 37.7558 4.05603 38.2563C3.69497 38.642 3.53906 39.0523 3.53906 39.6431C3.53906 40.2339 3.69497 40.6442 4.05603 41.0298C4.57299 41.5714 4.75352 41.6124 6.90342 41.6124H8.83178L8.80716 42.1212C8.79075 42.4002 8.81537 42.7694 8.87281 42.9499C8.98769 43.352 9.48003 43.8936 9.89853 44.0823C10.2103 44.23 10.8422 44.2382 23.5447 44.2382C38.2494 44.2382 37.1581 44.2793 37.7489 43.7213C38.1428 43.3438 38.3315 42.8925 38.3315 42.2853C38.3315 41.6863 38.1756 41.2678 37.8145 40.8821C37.3386 40.3816 37.0432 40.2995 35.681 40.2995C34.3107 40.2995 33.9414 40.2093 33.8511 39.8564C33.7609 39.4954 33.884 39.2328 34.1876 39.1015C34.4173 39.0112 35.1969 38.9866 38.6187 38.9866C43.1893 38.9866 43.099 38.9948 43.657 38.4697C44.0591 38.084 44.2396 37.6491 44.2396 37.0173C44.2396 36.3854 44.0591 35.9505 43.657 35.5649C43.1401 35.0807 42.9678 35.0479 40.8425 35.0479H38.9223L38.8649 34.81C38.791 34.4735 38.3315 33.8581 37.9458 33.5709C37.5437 33.2755 37.0186 33.0786 36.6411 33.0786H36.3621V30.822V28.5655L36.8791 28.8363C37.3632 29.0906 37.4289 29.0988 38.3315 29.0988C39.2095 29.0988 39.308 29.0824 39.7675 28.8609C40.3911 28.5491 41.023 27.9254 41.3266 27.3018C41.5235 26.8915 41.5728 26.6782 41.5974 26.0381L41.6302 25.275L42.0159 24.8894C42.2292 24.676 42.5164 24.2821 42.6477 24.0114C42.8693 23.5518 42.8857 23.4534 42.8857 22.5754C42.8775 21.5168 42.7872 21.2214 42.2374 20.4993C41.942 20.1055 41.942 20.1055 42.0815 19.8429C42.1718 19.6706 42.2292 19.3177 42.2538 18.8254C42.2949 17.9392 42.1472 17.3648 41.7287 16.7822C41.4989 16.4458 41.4743 16.3719 41.5482 16.1586C41.5974 16.0273 41.622 15.576 41.5974 15.1575C41.5646 14.3205 41.3676 13.7954 40.8589 13.1881C40.506 12.7532 39.7265 12.2691 39.2095 12.1542C38.8238 12.064 38.7582 12.0147 38.5366 11.6455C38.2248 11.1285 37.7079 10.6608 37.1088 10.3736C36.6903 10.1603 36.5673 10.1438 35.7057 10.1438C34.844 10.1438 34.721 10.1603 34.3025 10.3736C33.7034 10.6608 33.1865 11.1285 32.8747 11.6455C32.6531 12.0147 32.5875 12.064 32.2018 12.1542C31.6848 12.2691 30.9053 12.7532 30.5524 13.1881C30.0437 13.7954 29.8467 14.3205 29.8139 15.1575C29.7893 15.576 29.8139 16.0273 29.8631 16.1668C29.937 16.3719 29.9206 16.4458 29.7647 16.6591C29.658 16.7986 29.5103 17.0694 29.4282 17.2581C29.338 17.4551 29.2641 17.6274 29.2559 17.6438C29.2395 17.652 29.1082 17.5781 28.9605 17.4633C28.8128 17.3484 28.4271 17.1268 28.1153 16.9791C27.6066 16.7412 27.4507 16.7083 26.6793 16.6837C25.9572 16.6591 25.7274 16.6837 25.2925 16.8314C24.6935 17.0284 23.9878 17.4551 23.5529 17.8735L23.2493 18.1607L23.1919 17.8161C23.0606 17.0448 22.6093 16.3637 21.444 15.1657L20.3281 14.0415H21.7805H23.2329V13.1143C23.2329 11.8424 23.1508 11.7029 21.8707 10.669C19.7372 8.94583 18.3751 7.26368 17.0211 4.68711C16.5698 3.83372 16.1431 3.53832 15.3554 3.53832C14.863 3.53832 14.7563 3.57114 14.4035 3.8009ZM15.9954 5.79487C17.2591 8.16629 19.0233 10.2669 21.0584 11.826C21.641 12.2773 21.8379 12.4578 21.8379 12.5809C21.8379 12.6137 21.2717 12.6466 20.5824 12.6466C19.8849 12.6466 18.8674 12.6712 18.3258 12.704L17.3247 12.7532V13.4015V14.0415H17.8007H18.2766L19.8849 15.6662C21.3045 17.0858 21.7559 17.6356 21.7559 17.9392C21.7559 17.9638 20.763 17.9802 19.5403 17.9802H17.3247V18.6367V19.2931H17.8007H18.2684L19.8029 20.8276L21.3456 22.3702L21.2881 22.7969L21.2389 23.2318H15.101C11.7202 23.2318 8.95487 23.2154 8.95487 23.1908C8.95487 22.8872 9.40618 22.3374 10.8258 20.9178L12.4341 19.2931H12.91H13.386V18.6367V17.9802H11.1704C9.95597 17.9802 8.95487 17.9638 8.95487 17.9392C8.95487 17.6356 9.40618 17.0858 10.8258 15.6662L12.4341 14.0415H12.91H13.386V13.3851V12.7286H11.1294C8.38046 12.7286 8.4297 12.7614 9.81647 11.6947C11.6546 10.2833 13.5009 8.08424 14.6168 5.95898C15.3307 4.62146 15.3718 4.61326 15.9954 5.79487ZM36.4852 11.6537C36.9775 11.8752 37.4042 12.3922 37.5684 12.9748L37.6996 13.4671H38.2412C39.8003 13.4753 40.6783 14.9113 39.9809 16.2981L39.7347 16.774L40.1532 17.1515C40.6619 17.6028 40.8671 18.0377 40.8753 18.6203C40.8753 19.1536 40.7276 19.5229 40.3009 20.0316C40.1203 20.245 39.9726 20.4583 39.9726 20.4993C39.9726 20.5322 40.1121 20.6388 40.2763 20.7291C41.0886 21.1558 41.5235 21.804 41.5317 22.559C41.5317 23.3467 41.1297 23.9621 40.3419 24.356C40.1203 24.4709 39.9234 24.5693 39.9152 24.5775C39.8988 24.5857 39.9644 24.7909 40.0547 25.0206C40.3747 25.8494 40.2106 26.6782 39.6362 27.228C38.8731 27.9501 37.6832 27.9172 36.9611 27.1623C36.5344 26.711 36.4278 26.3418 36.3785 25.2258L36.3375 24.2247L37.6258 22.6164C38.3397 21.7302 38.9059 20.9917 38.8895 20.9835C38.8731 20.9753 38.6515 20.7948 38.3889 20.5814C38.1181 20.3681 37.8638 20.1957 37.8145 20.1957C37.7571 20.2039 37.4124 20.5978 37.0432 21.0737L36.3621 21.9435V18.6531V15.3544H35.7057H35.0492V17.332V19.3095L34.3517 18.4397C33.966 17.9638 33.6132 17.5699 33.5804 17.5699C33.5393 17.5699 33.2932 17.7423 33.0224 17.9556C32.7598 18.1689 32.53 18.3495 32.5218 18.3577C32.5054 18.3659 33.0716 19.1044 33.7773 19.9824L35.0656 21.5907L35.0328 23.9047C35 26.473 34.9753 26.6043 34.4502 27.1623C34.0891 27.548 33.6214 27.7449 33.0798 27.7449C32.5136 27.7449 32.0623 27.5398 31.6766 27.1131L31.3812 26.7849L31.5453 26.1776C31.7505 25.3981 31.8325 23.2564 31.6848 22.3456C31.5453 21.4512 31.2335 20.5158 30.8068 19.687C30.4704 19.0387 30.4458 18.9403 30.5032 18.5792C30.5935 17.9392 30.774 17.5946 31.2335 17.1679L31.6684 16.774L31.4304 16.2981C30.733 14.9113 31.6274 13.4425 33.1619 13.4589H33.7116L33.8429 12.9748C34.0973 12.0722 34.8194 11.4978 35.7057 11.4978C35.9682 11.4978 36.2965 11.5634 36.4852 11.6537ZM27.7296 18.3495C28.78 18.8746 29.617 20.0398 30.0929 21.6317C30.3555 22.5343 30.454 24.2575 30.2898 25.2504C29.9534 27.3428 28.7225 29.1645 27.3604 29.583L27.1717 29.6404V27.2444V24.8483L28.4518 23.2564C29.1575 22.3784 29.7154 21.6481 29.699 21.6399C29.6826 21.6317 29.4611 21.4512 29.1985 21.2379C28.9277 21.0245 28.6733 20.8522 28.6241 20.8522C28.5666 20.8604 28.222 21.2543 27.8527 21.7302L27.1717 22.6V21.6071V20.606H26.5152H25.8587V23.0841V25.5704L25.1612 24.5201C24.6935 23.8308 24.4227 23.4944 24.3571 23.5272C24.0699 23.6995 23.3149 24.2247 23.3149 24.2575C23.3149 24.2821 23.8894 25.1601 24.5868 26.2105L25.8587 28.1142V28.8773C25.8587 29.6322 25.8587 29.6404 25.6782 29.583C24.3078 29.1645 23.077 27.3428 22.7405 25.2504C22.5764 24.2575 22.6749 22.5343 22.9375 21.6317C23.4134 20.0398 24.2504 18.8746 25.3007 18.3495C25.8177 18.0951 25.949 18.0623 26.5152 18.0623C27.0814 18.0623 27.2127 18.0951 27.7296 18.3495ZM22.1169 19.8593C21.961 20.1711 21.8379 20.4665 21.8379 20.5158C21.8379 20.7455 21.641 20.6224 21.0091 19.9824L20.3198 19.2931H21.362H22.3959L22.1169 19.8593ZM21.3292 25.275C21.5753 27.1213 22.4533 28.9183 23.6104 29.9522C24.1355 30.4117 25.0135 30.9123 25.4977 31.0108L25.8177 31.0764L25.8423 33.0622L25.8587 35.0479H24.595H23.3314L23.5857 34.531C23.8319 34.0468 23.8483 33.973 23.8483 33.0786C23.8483 32.2006 23.8319 32.1021 23.6104 31.6426C23.2985 31.019 22.6749 30.3871 22.0513 30.0835C21.641 29.8866 21.4276 29.8374 20.7876 29.8127L20.0244 29.7799L19.6388 29.3942C19.1546 28.9101 18.4735 28.5737 17.8581 28.508C17.4396 28.467 17.3412 28.4178 17.0375 28.106C16.8406 27.9172 16.5288 27.6793 16.3483 27.5808L16.0118 27.4167V25.9807V24.5447H18.6213H21.2307L21.3292 25.275ZM31.9884 28.9922C32.3741 29.1235 32.6121 29.1481 33.2439 29.1235C33.925 29.0906 34.0891 29.0578 34.5404 28.8281L35.0492 28.5655V30.3297V32.1021L34.7948 31.9626C34.6553 31.897 34.3435 31.6426 34.1055 31.3964C33.8676 31.1585 33.4573 30.8548 33.1865 30.7318C32.7434 30.5102 32.6367 30.4938 31.7669 30.4938C30.9053 30.4938 30.7822 30.5102 30.3719 30.7154C29.4447 31.1749 28.8046 31.9462 28.5584 32.8898C28.46 33.3001 28.3779 33.4478 28.1646 33.6037C27.8281 33.8581 27.4507 34.3669 27.2947 34.7771C27.1963 35.0561 27.1799 34.9002 27.1963 33.0786L27.2127 31.0764L27.5327 31.0108C28.46 30.8138 29.7072 29.8538 30.3719 28.8363L30.7412 28.2619L31.1268 28.5409C31.3402 28.6968 31.7259 28.8937 31.9884 28.9922ZM15.421 28.6968C15.7656 28.8363 16.1923 29.2219 16.4303 29.6076C16.5944 29.8702 16.619 29.8784 17.1688 29.8784C18.1043 29.8784 18.6869 30.2394 19.1054 31.0682C19.2203 31.2897 19.3187 31.4867 19.3269 31.4949C19.3352 31.5113 19.5403 31.4374 19.7865 31.3472C20.6399 31.0272 21.3948 31.1749 21.9774 31.7821C22.3303 32.1431 22.4944 32.5698 22.4944 33.095C22.4862 33.6037 22.3385 33.9402 21.8379 34.5802L21.4687 35.0479H16.7011H11.9336L11.5069 34.5556C10.9899 33.9648 10.8422 33.6284 10.8422 33.0622C10.8504 32.1924 11.4248 31.4703 12.3192 31.2159L12.8116 31.0846V30.543C12.8198 29.7143 13.1972 29.0824 13.9194 28.705C14.2394 28.5327 15.0271 28.5327 15.421 28.6968ZM32.489 31.979C32.8418 32.1267 33.1865 32.4303 33.4244 32.816C33.5147 32.9637 33.6788 33.095 33.8019 33.1278C34.5076 33.2755 34.8112 33.5709 35.0164 34.3094C35.0902 34.5802 35.1641 34.8018 35.1805 34.8018C35.1969 34.8018 35.3938 34.7279 35.6236 34.6376C36.2554 34.3915 36.6739 34.4161 37.1088 34.7361L37.4699 35.0069L33.1701 35.0315C30.8068 35.0397 28.8456 35.0315 28.821 34.9987C28.739 34.9166 29.2149 34.5638 29.5513 34.4653L29.8796 34.3669V33.8253C29.8878 32.9965 30.2652 32.3647 30.9873 31.9872C31.3074 31.8149 32.0951 31.8149 32.489 31.979ZM42.4754 36.4757C42.779 36.607 42.9021 36.8696 42.8118 37.2306C42.697 37.6655 42.5739 37.6737 38.0279 37.6737C33.326 37.6737 33.4901 37.6573 32.8993 38.3138C32.5218 38.724 32.3987 39.1343 32.4398 39.7908L32.4644 40.2995H31.7915H31.1104V40.956V41.6124H33.6952C36.5344 41.6124 36.797 41.6452 36.9037 42.0555C36.994 42.4166 36.8709 42.6792 36.5673 42.8104C36.1406 42.9828 10.9817 42.9828 10.555 42.8104C10.2514 42.6792 10.1283 42.4166 10.2186 42.0555C10.317 41.6699 10.637 41.6124 12.7705 41.6124H14.6989V40.956V40.2995H10.1447C6.37005 40.2995 5.53306 40.2831 5.3033 40.1846C4.99969 40.0534 4.8766 39.7908 4.96687 39.4297C5.05713 39.0769 5.42639 38.9866 6.79675 38.9866C7.80606 38.9866 8.06864 38.9538 8.33943 38.8307C8.92204 38.5599 9.44721 37.846 9.44721 37.3209C9.44721 36.9352 9.62774 36.5906 9.89032 36.4757C10.2842 36.3034 42.0651 36.3034 42.4754 36.4757Z" fill="#118B50"/>
<path id="Vector_2" d="M14.6987 38.3302V38.9867H15.8475C16.8897 38.9867 17.0128 39.0031 17.1605 39.1508C17.2589 39.2493 17.3246 39.4216 17.3246 39.5775C17.3246 39.9632 17.6856 40.5129 18.0959 40.7509C18.4324 40.9478 18.498 40.956 19.8519 40.956H21.2633V40.2996V39.6431H20.1145C19.0724 39.6431 18.9493 39.6267 18.8016 39.479C18.7031 39.3806 18.6375 39.2082 18.6375 39.0523C18.6375 38.6667 18.2764 38.1169 17.8662 37.8789C17.5297 37.682 17.4641 37.6738 16.1101 37.6738H14.6987V38.3302Z" fill="#118B50"/>
</g>
</g>
</svg>
