<svg width="49" height="48" viewBox="0 0 49 48" fill="none" xmlns="http://www.w3.org/2000/svg">
<g id="Frame 3875">
<g id="Black">
<path id="Vector" d="M22.9364 5.65706C20.8544 6.11913 19.1632 7.51243 18.3886 9.40335L18.147 9.98626L17.6993 10.1142C15.397 10.7682 13.4855 12.7515 12.8389 15.1827C12.6328 15.9576 12.647 17.9551 12.8602 18.7513C12.9526 19.0712 13.0236 19.3555 13.0236 19.3698C13.0236 19.3911 12.9312 19.4551 12.8104 19.519C12.4836 19.6896 11.6877 20.4645 11.375 20.9266C10.9913 21.4881 10.7568 22.0355 10.6147 22.7037L10.4939 23.2582L9.91122 23.4999C8.085 24.2463 6.67092 25.8529 6.19482 27.7296C6.01006 28.476 6.01006 29.72 6.20192 30.4736C6.77751 32.7412 8.66058 34.5184 11.0055 35.016C12.043 35.2364 13.6489 35.1084 14.5301 34.7388L14.8001 34.625V37.5752V40.5253H11.7872H8.78138L8.58952 40.7101C8.3266 40.9802 8.3266 41.492 8.58952 41.7622L8.78138 41.947H24.251H39.7206L39.9125 41.7622C40.1754 41.492 40.1754 40.9802 39.9125 40.7101L39.7206 40.5253H36.7148H33.7019V37.5752V34.625L34.043 34.7601C34.7749 35.0445 35.4358 35.144 36.4661 35.1084C37.2549 35.0729 37.5391 35.0373 38.0365 34.8738C40.1825 34.1914 41.7672 32.5493 42.3001 30.4736C42.492 29.72 42.492 28.476 42.3072 27.7296C41.8311 25.86 40.3957 24.225 38.5766 23.4857L38.0081 23.2582L37.8873 22.7037C37.7452 22.0355 37.5107 21.4881 37.127 20.9266C36.8143 20.4645 36.0184 19.6896 35.6916 19.519C35.5708 19.4551 35.4784 19.384 35.4784 19.3555C35.4784 19.3271 35.5495 19.0641 35.6276 18.7726C35.9119 17.7561 35.8834 15.5808 35.5779 14.9908C35.45 14.742 35.2723 14.6496 34.9099 14.6496C34.6754 14.6496 34.5688 14.6922 34.3983 14.8628C34.1993 15.0619 34.1922 15.1045 34.2277 15.4529C34.3841 16.8817 34.3628 17.6921 34.1283 18.5594L34.0643 18.8082H32.9771C31.9752 18.8082 31.8473 18.8224 31.3712 19.0001C29.6871 19.6115 28.4648 20.9905 28.0953 22.7037L27.9745 23.2582L27.406 23.4857C26.7239 23.7629 25.9564 24.2605 25.388 24.8079L24.9616 25.2131L24.9758 22.3767L24.9971 19.5333L27.0579 18.5594C28.1877 18.0191 29.1825 17.5073 29.2749 17.422C29.5165 17.1874 29.5094 16.6542 29.2536 16.3983C28.9054 16.0571 28.6709 16.114 26.7452 17.031C25.8001 17.4788 25.0113 17.8485 24.9971 17.8485C24.9758 17.8485 24.9616 16.6045 24.9616 15.0832V12.325L24.7768 12.1331C24.6276 11.9838 24.521 11.9483 24.251 11.9483C23.981 11.9483 23.8744 11.9838 23.7252 12.1331L23.5404 12.325V14.0169C23.5404 14.9552 23.5262 15.7159 23.512 15.7159C23.4907 15.7159 22.7019 15.3462 21.7568 14.8984C19.8311 13.9814 19.5966 13.9245 19.2484 14.2657C18.9926 14.5216 18.9855 15.0548 19.2271 15.2894C19.3195 15.3747 20.3143 15.8865 21.4442 16.4268L23.5049 17.4006L23.5262 21.3033L23.5404 25.2131L23.1141 24.8079C22.5456 24.2605 21.7781 23.7629 21.096 23.4857L20.5275 23.2582L20.4067 22.7037C20.0372 20.9905 18.815 19.6115 17.1309 19.0001C16.6548 18.8224 16.5197 18.8082 15.5249 18.8082H14.4448L14.324 18.4172C14.1606 17.9125 14.1464 16.0713 14.2956 15.5382C14.8783 13.4482 16.4558 11.9269 18.5307 11.4435C19.3266 11.2658 19.4119 11.1805 19.625 10.4554C20.0017 9.1972 20.8686 8.16643 22.0553 7.58352C23.0004 7.12145 23.4622 7.02193 24.4642 7.05748C25.1179 7.08591 25.3809 7.12856 25.8001 7.28495C26.5746 7.57641 27.1431 7.93185 27.7045 8.49343C28.2801 9.06924 28.6496 9.68769 28.877 10.4554C29.0902 11.1805 29.1754 11.2658 29.9571 11.4435C30.8027 11.6355 30.8808 11.6355 31.158 11.3867C31.3569 11.209 31.3925 11.1308 31.3925 10.8535C31.3925 10.4412 31.1722 10.1995 30.6819 10.0787C30.3479 9.98626 30.3408 9.97915 30.1489 9.49576C29.8221 8.65693 29.4597 8.11667 28.7349 7.39869C27.7898 6.46034 26.7736 5.90586 25.5869 5.66417C24.919 5.5291 23.5333 5.522 22.9364 5.65706ZM16.9319 20.5569C18.1612 21.1469 18.8647 22.1564 18.9926 23.5212C19.0637 24.3245 19.1561 24.4383 19.9235 24.68C21.366 25.1278 22.4035 25.9595 23.0075 27.1609C23.3841 27.9073 23.4907 28.4262 23.448 29.2935C23.4054 30.1963 23.242 30.7224 22.7659 31.4474C22.0695 32.4995 21.0036 33.2459 19.7885 33.5303C19.1916 33.6725 18.1896 33.6654 17.6354 33.5232C17.0314 33.3668 16.2213 32.9474 16.2213 32.7981C16.2213 32.7341 16.7045 32.1939 17.2872 31.5967L18.3531 30.5162V30.1679C18.3531 29.6703 18.1186 29.4357 17.6354 29.4357C17.3014 29.4357 17.2659 29.457 16.7542 29.9404L16.2213 30.4522V27.9997V25.5472L16.0365 25.3553C15.7665 25.0923 15.2549 25.0923 14.9849 25.3553L14.8001 25.5472V27.2391V28.9381L13.1657 28.1206C11.3253 27.1964 11.0766 27.1325 10.7213 27.4879C10.4797 27.7367 10.4584 28.2556 10.6858 28.4973C10.7639 28.5897 11.7232 29.1016 12.8176 29.6489L14.8001 30.6442V31.7816V32.9189L14.3169 33.1606C13.6561 33.4948 13.0663 33.6369 12.3201 33.6369C10.6502 33.6369 9.17221 32.8408 8.25554 31.4474C7.77944 30.7224 7.61601 30.1963 7.57337 29.2935C7.53074 28.4191 7.63022 27.9215 8.00683 27.1751C8.61794 25.9595 9.64831 25.1278 11.0979 24.68C11.8654 24.4383 11.9648 24.3174 12.0359 23.5212C12.0643 23.1942 12.1141 22.8317 12.1567 22.718C12.4907 21.6659 13.4429 20.7275 14.5514 20.365C14.7362 20.301 15.1128 20.2726 15.6173 20.2868C16.3492 20.301 16.4345 20.3152 16.9319 20.5569ZM34.4125 20.5569C35.6418 21.1469 36.3453 22.1564 36.4732 23.5212C36.5443 24.3245 36.6367 24.4383 37.4041 24.68C38.8466 25.1278 39.8841 25.9595 40.4881 27.1609C40.8647 27.9073 40.9713 28.4262 40.9286 29.2935C40.886 30.1963 40.7226 30.7224 40.2465 31.4474C39.3298 32.8408 37.8518 33.6369 36.1819 33.6369C35.4358 33.6369 34.846 33.4948 34.1851 33.1606L33.7019 32.9189V31.7816V30.6442L35.6845 29.6489C36.7788 29.1016 37.7381 28.5897 37.8162 28.4973C38.0436 28.2556 38.0223 27.7367 37.7807 27.4879C37.4254 27.1325 37.1767 27.1964 35.3363 28.1206L33.7019 28.9381V26.1728V23.4146L33.5172 23.2227C33.2471 22.9597 32.7355 22.9597 32.4655 23.2227L32.2807 23.4146V24.8008V26.187L31.7478 25.6752C31.2361 25.1918 31.2006 25.1705 30.8666 25.1705C30.3834 25.1705 30.1489 25.405 30.1489 25.9027V26.251L31.2148 27.3315L32.2807 28.412V30.6655V32.9189L31.7975 33.1606C31.1367 33.4948 30.5469 33.6369 29.8007 33.6369C28.1309 33.6369 26.6528 32.8408 25.7362 31.4474C25.2601 30.7224 25.0966 30.1963 25.054 29.2935C25.0113 28.4191 25.1108 27.9215 25.4874 27.1751C26.0986 25.9595 27.1289 25.1278 28.5785 24.68C29.346 24.4383 29.4454 24.3174 29.5165 23.5212C29.5449 23.1942 29.5947 22.8317 29.6373 22.718C29.9713 21.6659 30.9235 20.7275 32.032 20.365C32.2168 20.301 32.5934 20.2726 33.0979 20.2868C33.8298 20.301 33.9151 20.3152 34.4125 20.5569ZM23.5404 36.7577V40.5253H19.8809H16.2213V37.5752V34.625L16.5624 34.7601C16.7471 34.8312 17.1451 34.9449 17.4577 35.016C18.211 35.1866 19.7245 35.1369 20.4493 34.9165C21.4442 34.625 22.5953 33.9355 23.2491 33.2459C23.3841 33.1038 23.5049 32.99 23.5191 32.99C23.5333 32.99 23.5404 34.6819 23.5404 36.7577ZM26.262 34.0777C27.3066 34.7743 28.1948 35.0516 29.5165 35.1013C30.5469 35.144 31.2077 35.0516 31.9467 34.7601L32.2807 34.625V37.5752V40.5253H28.6212H24.9616V36.7505V32.9758L25.4093 33.3881C25.6509 33.6227 26.0346 33.9284 26.262 34.0777Z" fill="#118B50"/>
<path id="Vector_2" d="M32.8205 12.062C32.6713 12.2113 32.6357 12.3179 32.6357 12.588C32.6357 12.8582 32.6713 12.9648 32.8205 13.1141C32.9697 13.2634 33.0763 13.2989 33.3463 13.2989C33.6164 13.2989 33.723 13.2634 33.8722 13.1141C34.0214 12.9648 34.0569 12.8582 34.0569 12.588C34.0569 12.3179 34.0214 12.2113 33.8722 12.062C33.723 11.9127 33.6164 11.8772 33.3463 11.8772C33.0763 11.8772 32.9697 11.9127 32.8205 12.062Z" fill="#118B50"/>
</g>
</g>
</svg>
