<svg width="48" height="48" viewBox="0 0 48 48" fill="none" xmlns="http://www.w3.org/2000/svg">
<g id="Frame 3875">
<g id="Black">
<path id="Vector" d="M22.4364 5.65705C20.3544 6.11912 18.6632 7.51243 17.8886 9.40334L17.647 9.98626L17.1993 10.1142C14.897 10.7682 12.9855 12.7515 12.3389 15.1827C12.1328 15.9576 12.147 17.9551 12.3602 18.7513C12.4526 19.0712 12.5236 19.3555 12.5236 19.3698C12.5236 19.3911 12.4312 19.4551 12.3104 19.519C11.9836 19.6896 11.1877 20.4645 10.875 20.9266C10.4913 21.4881 10.2568 22.0355 10.1147 22.7037L9.99391 23.2582L9.41122 23.4999C7.585 24.2463 6.17092 25.8529 5.69482 27.7296C5.51006 28.476 5.51006 29.72 5.70192 30.4735C6.27751 32.7412 8.16058 34.5184 10.5055 35.016C11.543 35.2364 13.1489 35.1084 14.0301 34.7388L14.3001 34.625V37.5751V40.5253H11.2872H8.28138L8.08952 40.7101C7.8266 40.9802 7.8266 41.492 8.08952 41.7622L8.28138 41.947H23.751H39.2206L39.4125 41.7622C39.6754 41.492 39.6754 40.9802 39.4125 40.7101L39.2206 40.5253H36.2148H33.2019V37.5751V34.625L33.543 34.7601C34.2749 35.0444 34.9358 35.144 35.9661 35.1084C36.7549 35.0729 37.0391 35.0373 37.5365 34.8738C39.6825 34.1914 41.2672 32.5493 41.8001 30.4735C41.992 29.72 41.992 28.476 41.8072 27.7296C41.3311 25.86 39.8957 24.225 38.0766 23.4857L37.5081 23.2582L37.3873 22.7037C37.2452 22.0355 37.0107 21.4881 36.627 20.9266C36.3143 20.4645 35.5184 19.6896 35.1916 19.519C35.0708 19.4551 34.9784 19.384 34.9784 19.3555C34.9784 19.3271 35.0495 19.0641 35.1276 18.7726C35.4119 17.7561 35.3834 15.5808 35.0779 14.9908C34.95 14.742 34.7723 14.6496 34.4099 14.6496C34.1754 14.6496 34.0688 14.6922 33.8983 14.8628C33.6993 15.0619 33.6922 15.1045 33.7277 15.4529C33.8841 16.8817 33.8628 17.6921 33.6283 18.5594L33.5643 18.8082H32.4771C31.4752 18.8082 31.3473 18.8224 30.8712 19.0001C29.1871 19.6114 27.9648 20.9905 27.5953 22.7037L27.4745 23.2582L26.906 23.4857C26.2239 23.7629 25.4564 24.2605 24.888 24.8079L24.4616 25.2131L24.4758 22.3767L24.4971 19.5333L26.5579 18.5594C27.6877 18.0191 28.6825 17.5073 28.7749 17.422C29.0165 17.1874 29.0094 16.6542 28.7536 16.3983C28.4054 16.0571 28.1709 16.114 26.2452 17.031C25.3001 17.4788 24.5113 17.8485 24.4971 17.8485C24.4758 17.8485 24.4616 16.6045 24.4616 15.0832V12.325L24.2768 12.1331C24.1276 11.9838 24.021 11.9483 23.751 11.9483C23.481 11.9483 23.3744 11.9838 23.2252 12.1331L23.0404 12.325V14.0169C23.0404 14.9552 23.0262 15.7159 23.012 15.7159C22.9907 15.7159 22.2019 15.3462 21.2568 14.8984C19.3311 13.9814 19.0966 13.9245 18.7484 14.2657C18.4926 14.5216 18.4855 15.0548 18.7271 15.2894C18.8195 15.3747 19.8143 15.8865 20.9442 16.4267L23.0049 17.4006L23.0262 21.3033L23.0404 25.2131L22.6141 24.8079C22.0456 24.2605 21.2781 23.7629 20.596 23.4857L20.0275 23.2582L19.9067 22.7037C19.5372 20.9905 18.315 19.6114 16.6309 19.0001C16.1548 18.8224 16.0197 18.8082 15.0249 18.8082H13.9448L13.824 18.4172C13.6606 17.9125 13.6464 16.0713 13.7956 15.5382C14.3783 13.4482 15.9558 11.9269 18.0307 11.4435C18.8266 11.2658 18.9119 11.1805 19.125 10.4554C19.5017 9.19719 20.3686 8.16643 21.5553 7.58352C22.5004 7.12145 22.9622 7.02193 23.9642 7.05747C24.6179 7.08591 24.8809 7.12856 25.3001 7.28495C26.0746 7.5764 26.6431 7.93184 27.2045 8.49343C27.7801 9.06923 28.1496 9.68769 28.377 10.4554C28.5902 11.1805 28.6754 11.2658 29.4571 11.4435C30.3027 11.6355 30.3808 11.6355 30.658 11.3867C30.8569 11.209 30.8925 11.1308 30.8925 10.8535C30.8925 10.4412 30.6722 10.1995 30.1819 10.0787C29.8479 9.98626 29.8408 9.97915 29.6489 9.49576C29.3221 8.65693 28.9597 8.11667 28.2349 7.39869C27.2898 6.46034 26.2736 5.90586 25.0869 5.66417C24.419 5.5291 23.0333 5.52199 22.4364 5.65705ZM16.4319 20.5569C17.6612 21.1469 18.3647 22.1564 18.4926 23.5212C18.5637 24.3245 18.6561 24.4383 19.4235 24.68C20.866 25.1278 21.9035 25.9595 22.5075 27.1609C22.8841 27.9073 22.9907 28.4262 22.948 29.2935C22.9054 30.1963 22.742 30.7224 22.2659 31.4474C21.5695 32.4995 20.5036 33.2459 19.2885 33.5303C18.6916 33.6725 17.6896 33.6654 17.1354 33.5232C16.5314 33.3668 15.7213 32.9474 15.7213 32.7981C15.7213 32.7341 16.2045 32.1939 16.7872 31.5967L17.8531 30.5162V30.1679C17.8531 29.6703 17.6186 29.4357 17.1354 29.4357C16.8014 29.4357 16.7659 29.457 16.2542 29.9404L15.7213 30.4522V27.9997V25.5472L15.5365 25.3553C15.2665 25.0923 14.7549 25.0923 14.4849 25.3553L14.3001 25.5472V27.2391V28.9381L12.6657 28.1206C10.8253 27.1964 10.5766 27.1325 10.2213 27.4879C9.9797 27.7367 9.95838 28.2556 10.1858 28.4973C10.2639 28.5897 11.2232 29.1016 12.3176 29.6489L14.3001 30.6442V31.7816V32.9189L13.8169 33.1606C13.1561 33.4948 12.5663 33.6369 11.8201 33.6369C10.1502 33.6369 8.67221 32.8407 7.75554 31.4474C7.27944 30.7224 7.11601 30.1963 7.07337 29.2935C7.03074 28.4191 7.13022 27.9215 7.50683 27.1751C8.11794 25.9595 9.14831 25.1278 10.5979 24.68C11.3654 24.4383 11.4648 24.3174 11.5359 23.5212C11.5643 23.1942 11.6141 22.8317 11.6567 22.718C11.9907 21.6659 12.9429 20.7275 14.0514 20.365C14.2362 20.301 14.6128 20.2726 15.1173 20.2868C15.8492 20.301 15.9345 20.3152 16.4319 20.5569ZM33.9125 20.5569C35.1418 21.1469 35.8453 22.1564 35.9732 23.5212C36.0443 24.3245 36.1367 24.4383 36.9041 24.68C38.3466 25.1278 39.3841 25.9595 39.9881 27.1609C40.3647 27.9073 40.4713 28.4262 40.4286 29.2935C40.386 30.1963 40.2226 30.7224 39.7465 31.4474C38.8298 32.8407 37.3518 33.6369 35.6819 33.6369C34.9358 33.6369 34.346 33.4948 33.6851 33.1606L33.2019 32.9189V31.7816V30.6442L35.1845 29.6489C36.2788 29.1016 37.2381 28.5897 37.3162 28.4973C37.5436 28.2556 37.5223 27.7367 37.2807 27.4879C36.9254 27.1325 36.6767 27.1964 34.8363 28.1206L33.2019 28.9381V26.1728V23.4146L33.0172 23.2227C32.7471 22.9596 32.2355 22.9596 31.9655 23.2227L31.7807 23.4146V24.8008V26.187L31.2478 25.6752C30.7361 25.1918 30.7006 25.1705 30.3666 25.1705C29.8834 25.1705 29.6489 25.405 29.6489 25.9027V26.251L30.7148 27.3315L31.7807 28.412V30.6655V32.9189L31.2975 33.1606C30.6367 33.4948 30.0469 33.6369 29.3007 33.6369C27.6309 33.6369 26.1528 32.8407 25.2362 31.4474C24.7601 30.7224 24.5966 30.1963 24.554 29.2935C24.5113 28.4191 24.6108 27.9215 24.9874 27.1751C25.5986 25.9595 26.6289 25.1278 28.0785 24.68C28.846 24.4383 28.9454 24.3174 29.0165 23.5212C29.0449 23.1942 29.0947 22.8317 29.1373 22.718C29.4713 21.6659 30.4235 20.7275 31.532 20.365C31.7168 20.301 32.0934 20.2726 32.5979 20.2868C33.3298 20.301 33.4151 20.3152 33.9125 20.5569ZM23.0404 36.7576V40.5253H19.3809H15.7213V37.5751V34.625L16.0624 34.7601C16.2471 34.8312 16.6451 34.9449 16.9577 35.016C17.711 35.1866 19.2245 35.1369 19.9493 34.9165C20.9442 34.625 22.0953 33.9355 22.7491 33.2459C22.8841 33.1038 23.0049 32.99 23.0191 32.99C23.0333 32.99 23.0404 34.6819 23.0404 36.7576ZM25.762 34.0777C26.8066 34.7743 27.6948 35.0516 29.0165 35.1013C30.0469 35.144 30.7077 35.0516 31.4467 34.7601L31.7807 34.625V37.5751V40.5253H28.1212H24.4616V36.7505V32.9758L24.9093 33.3881C25.1509 33.6227 25.5346 33.9284 25.762 34.0777Z" fill="#118B50"/>
<path id="Vector_2" d="M32.3205 12.062C32.1713 12.2113 32.1357 12.3179 32.1357 12.588C32.1357 12.8582 32.1713 12.9648 32.3205 13.1141C32.4697 13.2634 32.5763 13.2989 32.8463 13.2989C33.1164 13.2989 33.223 13.2634 33.3722 13.1141C33.5214 12.9648 33.5569 12.8582 33.5569 12.588C33.5569 12.3179 33.5214 12.2113 33.3722 12.062C33.223 11.9127 33.1164 11.8772 32.8463 11.8772C32.5763 11.8772 32.4697 11.9127 32.3205 12.062Z" fill="#118B50"/>
</g>
</g>
</svg>
