<svg width="48" height="48" viewBox="0 0 48 48" fill="none" xmlns="http://www.w3.org/2000/svg">
<g id="image 6 (traced)" clip-path="url(#clip0_2305_1854)">
<g id="Black">
<path id="Vector" d="M0.92831 0.946873C0.74081 1.13437 0.731435 1.2 0.77831 3.73125C0.825185 6.57187 0.87206 6.9375 1.46268 8.70937C2.87831 12.9656 6.19706 16.2844 10.4533 17.7094C12.4783 18.3844 12.6377 18.4031 18.2158 18.4406L23.2502 18.4875V20.2125V21.9375H23.0439C21.5158 21.9375 18.4689 22.5 16.6127 23.1187C15.1877 23.5875 12.9377 24.6375 11.7189 25.4062C9.10331 27.0375 6.54393 29.4469 4.94081 31.8094C4.47206 32.4844 4.44393 32.5687 4.59393 32.9437C4.72518 33.3 5.09081 33.4969 5.47518 33.4312C5.74706 33.375 5.90644 33.2156 6.57206 32.3156C7.46269 31.1062 9.62831 28.9031 10.7346 28.0594C12.3846 26.8219 14.0064 25.875 15.7033 25.1812C16.8002 24.7406 18.6283 24.1594 19.2939 24.0469L19.6877 23.9812V26.9812V29.9812L18.8346 30.0187C17.5221 30.0656 17.6252 29.7 17.6252 34.4156V38.3438H15.0471H12.4596L12.2346 38.5781C12.0002 38.8031 12.0002 38.8219 12.0002 40.575V42.3562L12.4971 43.0687C12.7596 43.4625 13.2939 44.2219 13.6689 44.7656L14.3533 45.75H8.33456H2.31581L2.37206 44.2219C2.45643 41.7656 2.94393 39.4594 3.89081 37.0969C4.36893 35.8875 4.40643 35.5594 4.09706 35.2687C3.85331 35.0344 3.31893 34.9875 3.06581 35.175C2.75643 35.4187 1.90331 37.6219 1.44393 39.375C0.993935 41.1187 0.825185 42.3844 0.77831 44.625C0.731435 46.6875 0.731435 46.7437 0.937685 46.9875L1.13456 47.25H24.0002H46.8658L47.0533 47.0062C47.2314 46.7719 47.2502 46.6312 47.2502 45.0844C47.2502 44.1562 47.1846 42.9281 47.1096 42.3094C46.3033 35.9625 43.1064 30.4312 38.0533 26.625C34.4252 23.8969 30.2064 22.3219 25.6221 21.975L24.7502 21.9094V20.1937V18.4687H29.2314C34.5377 18.4687 35.5314 18.3844 37.4533 17.7562C38.9627 17.2687 41.0533 16.1344 41.8877 15.3469C42.3658 14.8875 42.2908 14.1844 41.7283 13.9875C41.3346 13.8469 41.1377 13.9312 40.2752 14.5406C38.9252 15.5156 37.3221 16.2094 35.5127 16.6125C34.7252 16.7906 34.2658 16.8094 30.5158 16.8469C28.2471 16.875 26.4096 16.875 26.4377 16.8469C26.4658 16.8281 29.4846 14.5875 33.1408 11.8687C36.8064 9.14062 39.8908 6.81562 40.0127 6.68437C40.3033 6.36562 40.2846 5.95312 39.9471 5.61562C39.6564 5.33437 39.3939 5.27812 39.0846 5.44687C38.9814 5.50312 35.7283 7.90312 31.8658 10.7906C27.9939 13.6687 24.8158 16.0312 24.7971 16.0312C24.7221 16.0312 24.7502 13.9688 24.8439 12.7969C25.0689 9.95625 26.0721 7.70625 28.0314 5.70937C30.0283 3.675 32.3627 2.57812 35.2502 2.34375C35.8408 2.29688 38.4564 2.25 41.0533 2.25H45.7783L45.7127 3.8625C45.6752 4.75312 45.5814 5.85938 45.5064 6.32812C45.2158 8.05312 44.3814 10.0594 43.3596 11.475C42.7596 12.3187 42.7221 12.4219 42.8533 12.8156C42.9658 13.1812 43.1721 13.3125 43.6221 13.3125C44.0158 13.3125 44.2971 13.0219 45.0658 11.8406C45.9377 10.5 46.5658 8.98125 46.9877 7.22812C47.1471 6.55312 47.1846 6 47.2221 3.7875C47.2689 1.2 47.2689 1.14375 47.0721 0.946873C46.8752 0.75 46.8471 0.75 40.7627 0.75C33.9752 0.75 33.7877 0.759373 31.9971 1.35938C28.6314 2.48438 25.8564 4.95 24.4127 8.1C24.2158 8.54062 24.0283 8.90625 24.0002 8.90625C23.9721 8.90625 23.7846 8.54062 23.5877 8.1C22.1439 4.95 19.2564 2.39062 15.9377 1.33125C14.1658 0.759373 13.9596 0.75 7.24706 0.75C1.16268 0.75 1.12518 0.75 0.92831 0.946873ZM14.1846 2.52187C16.5377 3.0375 18.4502 4.09687 20.0439 5.75625C21.9002 7.6875 22.9408 10.0594 23.1564 12.7969C23.2502 13.9594 23.2783 16.0312 23.2127 16.0312C23.1846 16.0312 20.0064 13.6687 16.1346 10.7906C12.2721 7.90312 9.01894 5.50312 8.91581 5.44687C8.60644 5.27812 8.34394 5.325 8.05331 5.61562C7.71581 5.95312 7.69706 6.36562 7.99706 6.68437C8.10956 6.81562 11.2033 9.14062 14.8596 11.8594C18.5252 14.5875 21.5346 16.8281 21.5627 16.8469C21.5908 16.875 19.7533 16.875 17.4846 16.8469C13.7721 16.8094 13.2752 16.7906 12.5158 16.6219C8.39081 15.6844 5.14706 13.0969 3.43143 9.35625C2.70018 7.79062 2.39081 6.2625 2.28768 3.8625L2.22206 2.23125L7.74394 2.27812C12.9752 2.31562 13.3127 2.325 14.1846 2.52187ZM27.3752 23.7562C29.0533 24.0469 31.7533 24.8438 32.6346 25.3219C32.8221 25.4156 32.6533 25.6031 30.2908 27.975L27.7502 30.525V33.1875C27.7502 35.7937 27.7502 35.85 27.9564 36.0656C28.1533 36.2812 28.1908 36.2812 30.1127 36.2812H32.0627V39.1875C32.0627 42.2437 32.1002 42.5437 32.4846 42.6937C32.5689 42.7219 33.4221 42.75 34.3689 42.75C35.3158 42.75 36.0939 42.7781 36.0939 42.8156C36.0939 42.8625 35.8783 43.5375 35.6064 44.325L35.1189 45.75H25.7346H16.3408L14.9627 43.7906L13.5939 41.8312V40.8844V39.9375H16.1346H18.6752L18.9471 39.6656L19.2189 39.3937V35.4937V31.5937H20.0158C20.7471 31.5937 20.8408 31.575 21.0471 31.3594L21.2814 31.1344V27.4312V23.7188L21.4971 23.6719C22.3127 23.4937 26.1283 23.55 27.3752 23.7562ZM35.3158 26.7281C37.1627 27.8438 39.3002 29.6906 40.7346 31.4156C43.7533 35.0156 45.6564 40.1437 45.6564 44.6437V45.75H41.2408C37.7439 45.75 36.8346 45.7219 36.8721 45.6281C36.8908 45.5719 37.1814 44.7094 37.5002 43.7344C38.0533 42.0562 38.0814 41.9344 37.9596 41.6719C37.7346 41.2031 37.5283 41.1562 35.5127 41.1562H33.6564V38.175V35.1844L33.4127 34.9594C33.1783 34.7344 33.1314 34.7344 31.2564 34.7062L29.3439 34.6781V32.9719V31.2656L31.8471 28.7625C33.2346 27.375 34.3971 26.25 34.4439 26.25C34.4814 26.25 34.8752 26.4656 35.3158 26.7281Z" fill="#118B50"/>
</g>
</g>
<defs>
<clipPath id="clip0_2305_1854">
<rect width="48" height="48" fill="white"/>
</clipPath>
</defs>
</svg>
