<svg width="49" height="48" viewBox="0 0 49 48" fill="none" xmlns="http://www.w3.org/2000/svg">
<g id="Frame 3870">
<g id="Black">
<path id="Vector" d="M12.1563 10.7213C10.7487 10.9005 8.98268 11.6342 7.8395 12.4958C5.89437 13.9717 4.60615 16.1728 4.27343 18.5957C4.21371 19.0222 4.17959 21.7949 4.17959 26.4615V33.6619H3.53975H2.8999V34.3444V35.0269H13.6066H24.3133V34.3444V33.6619H23.4602H22.6071V27.0928V20.5237H33.2712H43.9352V27.0928V33.6619H41.0602C38.5008 33.6533 38.1937 33.6448 38.3472 33.5339C39.3795 32.7661 39.8146 32.2798 40.2582 31.384C40.6592 30.5821 40.7957 29.9678 40.8384 28.7991C40.8896 27.6559 40.7957 26.871 40.5057 25.7875L40.335 25.1221L39.8487 25.1818C38.4411 25.3524 36.8543 25.9496 35.7879 26.7089L35.2589 27.0843L35.0883 26.726C34.3034 25.1136 32.401 23.723 29.9354 22.9296C28.9373 22.6054 27.8367 22.3836 27.4614 22.4177C27.1969 22.4433 27.1713 22.4774 27.0263 22.9552C26.941 23.2367 26.7874 23.9277 26.6936 24.4908C26.54 25.3524 26.5229 25.7363 26.5571 26.8795C26.6082 28.364 26.7618 29.1403 27.214 30.1299C27.8112 31.4437 28.9629 32.6722 30.3193 33.4145L30.7544 33.6619H28.1353H25.5077V34.3444V35.0269H36.0438H46.5799V34.3444V33.6619H45.9401H45.3087L45.2832 26.0435L45.2576 18.4336L45.0272 17.6146C44.5495 15.8827 43.9011 14.7054 42.7408 13.494C40.9749 11.6598 38.5349 10.6275 35.95 10.6275H35.148V11.3015V11.9669L36.24 12.0181C37.9036 12.0863 39.1662 12.4873 40.4118 13.3404C42.2546 14.6031 43.5598 16.625 43.8414 18.6639L43.9096 19.1587H33.2626H22.6071L22.573 18.9625C22.5474 18.8602 22.5047 18.5872 22.4791 18.3483C22.3256 17.2307 21.7284 15.7377 20.9691 14.6031C20.5255 13.9547 19.3055 12.7177 18.6827 12.3082L18.2135 11.9925H26.0878H33.9537V11.31V10.6275L23.3578 10.636C17.5225 10.6446 12.489 10.6872 12.1563 10.7213ZM15.2532 12.2484C18.2817 12.9907 20.6705 15.5927 21.1397 18.6639L21.2165 19.1587H13.3933H5.57018L5.64696 18.6639C6.11618 15.5927 8.53906 12.948 11.5335 12.257C11.926 12.1631 12.3611 12.0693 12.4976 12.0437C13.018 11.9669 14.5621 12.0778 15.2532 12.2484ZM21.2421 27.0928V33.6619H19.3652H17.4883V27.9033V22.1447H13.3933H9.29834V27.9033V33.6619H7.42146H5.54459V27.0928V20.5237H13.3933H21.2421V27.0928ZM16.1233 24.1495V24.7894H13.3933H10.6633V24.1495V23.5097H13.3933H16.1233V24.1495ZM31.1127 24.8917C32.3839 25.5316 33.4247 26.5042 33.9537 27.5535C34.2608 28.1677 34.2693 28.2616 34.0048 28.7905C33.7745 29.2342 33.5271 30.1043 33.5271 30.4541C33.5271 30.5736 33.493 30.6759 33.4503 30.6759C33.4077 30.6759 32.4607 29.2427 31.3516 27.4938C30.234 25.7534 29.2871 24.269 29.2359 24.2178C29.1164 24.0557 30.3108 24.4908 31.1127 24.8917ZM30.4985 28.7564C31.855 30.8636 33.0323 32.7149 33.1176 32.8685L33.2797 33.1415L33.0408 33.0732C31.7185 32.6893 30.4388 31.9556 29.5601 31.0684C28.4595 29.9593 28.0074 28.8758 27.9221 27.1269C27.8794 26.3165 27.9477 24.8064 28.0244 24.8917C28.033 24.9088 29.1506 26.6407 30.4985 28.7564ZM16.1233 29.9081V33.6619H13.3933H10.6633V29.9081V26.1544H13.3933H16.1233V29.9081ZM38.2022 27.0843C38.1937 27.1269 37.4259 28.3298 36.513 29.7631L34.8494 32.3651L34.8238 31.64C34.7556 29.7119 35.6514 28.2189 37.3747 27.3573C38.0742 27.0075 38.2534 26.9478 38.2022 27.0843ZM39.371 29.7887C39.0724 31.0684 38.2449 32.058 36.9055 32.7149C36.496 32.9197 36.1462 33.0647 36.1291 33.0476C36.1035 33.022 36.8457 31.8191 37.7757 30.3688L39.4563 27.7327L39.4819 28.4749C39.499 28.927 39.4563 29.4389 39.371 29.7887Z" fill="#118B50"/>
<path id="Vector_2" d="M11.4312 16.5994V17.2819H12.1137H12.7962V16.5994V15.9169H12.1137H11.4312V16.5994Z" fill="#118B50"/>
<path id="Vector_3" d="M13.9907 16.5994V17.2819H14.6732H15.3557V16.5994V15.9169H14.6732H13.9907V16.5994Z" fill="#118B50"/>
</g>
</g>
</svg>
