<svg width="48" height="48" viewBox="0 0 48 48" fill="none" xmlns="http://www.w3.org/2000/svg">
<g id="Frame 3870">
<g id="Black">
<path id="Vector" d="M11.6563 10.7213C10.2487 10.9005 8.48268 11.6342 7.3395 12.4958C5.39437 13.9717 4.10615 16.1728 3.77343 18.5957C3.71371 19.0222 3.67959 21.7949 3.67959 26.4615V33.6619H3.03975H2.3999V34.3444V35.0269H13.1066H23.8133V34.3444V33.6619H22.9602H22.1071V27.0928V20.5237H32.7712H43.4352V27.0928V33.6619H40.5602C38.0008 33.6533 37.6937 33.6448 37.8472 33.5339C38.8795 32.7661 39.3146 32.2798 39.7582 31.384C40.1592 30.5821 40.2957 29.9678 40.3384 28.7991C40.3896 27.6559 40.2957 26.871 40.0057 25.7875L39.835 25.1221L39.3487 25.1818C37.9411 25.3524 36.3543 25.9496 35.2879 26.7089L34.7589 27.0843L34.5883 26.726C33.8034 25.1136 31.901 23.723 29.4354 22.9296C28.4373 22.6054 27.3367 22.3836 26.9614 22.4177C26.6969 22.4433 26.6713 22.4774 26.5263 22.9552C26.441 23.2367 26.2874 23.9277 26.1936 24.4908C26.04 25.3524 26.0229 25.7363 26.0571 26.8795C26.1082 28.364 26.2618 29.1403 26.714 30.1299C27.3112 31.4437 28.4629 32.6722 29.8193 33.4145L30.2544 33.6619H27.6353H25.0077V34.3444V35.0269H35.5438H46.0799V34.3444V33.6619H45.4401H44.8087L44.7832 26.0435L44.7576 18.4336L44.5272 17.6146C44.0495 15.8827 43.4011 14.7054 42.2408 13.494C40.4749 11.6598 38.0349 10.6275 35.45 10.6275H34.648V11.3015V11.9669L35.74 12.0181C37.4036 12.0863 38.6662 12.4873 39.9118 13.3404C41.7546 14.6031 43.0598 16.625 43.3414 18.6639L43.4096 19.1587H32.7626H22.1071L22.073 18.9625C22.0474 18.8602 22.0047 18.5872 21.9791 18.3483C21.8256 17.2307 21.2284 15.7377 20.4691 14.6031C20.0255 13.9547 18.8055 12.7177 18.1827 12.3082L17.7135 11.9925H25.5878H33.4537V11.31V10.6275L22.8578 10.636C17.0225 10.6446 11.989 10.6872 11.6563 10.7213ZM14.7532 12.2484C17.7817 12.9907 20.1705 15.5927 20.6397 18.6639L20.7165 19.1587H12.8933H5.07018L5.14696 18.6639C5.61618 15.5927 8.03906 12.948 11.0335 12.257C11.426 12.1631 11.8611 12.0693 11.9976 12.0437C12.518 11.9669 14.0621 12.0778 14.7532 12.2484ZM20.7421 27.0928V33.6619H18.8652H16.9883V27.9033V22.1447H12.8933H8.79834V27.9033V33.6619H6.92146H5.04459V27.0928V20.5237H12.8933H20.7421V27.0928ZM15.6233 24.1495V24.7894H12.8933H10.1633V24.1495V23.5097H12.8933H15.6233V24.1495ZM30.6127 24.8917C31.8839 25.5316 32.9247 26.5042 33.4537 27.5535C33.7608 28.1677 33.7693 28.2616 33.5048 28.7905C33.2745 29.2342 33.0271 30.1043 33.0271 30.4541C33.0271 30.5736 32.993 30.6759 32.9503 30.6759C32.9077 30.6759 31.9607 29.2427 30.8516 27.4938C29.734 25.7534 28.7871 24.269 28.7359 24.2178C28.6164 24.0557 29.8108 24.4908 30.6127 24.8917ZM29.9985 28.7564C31.355 30.8636 32.5323 32.7149 32.6176 32.8685L32.7797 33.1415L32.5408 33.0732C31.2185 32.6893 29.9388 31.9556 29.0601 31.0684C27.9595 29.9593 27.5074 28.8758 27.4221 27.1269C27.3794 26.3165 27.4477 24.8064 27.5244 24.8917C27.533 24.9088 28.6506 26.6407 29.9985 28.7564ZM15.6233 29.9081V33.6619H12.8933H10.1633V29.9081V26.1544H12.8933H15.6233V29.9081ZM37.7022 27.0843C37.6937 27.1269 36.9259 28.3298 36.013 29.7631L34.3494 32.3651L34.3238 31.64C34.2556 29.7119 35.1514 28.2189 36.8747 27.3573C37.5742 27.0075 37.7534 26.9478 37.7022 27.0843ZM38.871 29.7887C38.5724 31.0684 37.7449 32.058 36.4055 32.7149C35.996 32.9197 35.6462 33.0647 35.6291 33.0476C35.6035 33.022 36.3457 31.8191 37.2757 30.3688L38.9563 27.7327L38.9819 28.4749C38.999 28.927 38.9563 29.4389 38.871 29.7887Z" fill="#118B50"/>
<path id="Vector_2" d="M10.9312 16.5994V17.2819H11.6137H12.2962V16.5994V15.9169H11.6137H10.9312V16.5994Z" fill="#118B50"/>
<path id="Vector_3" d="M13.4907 16.5994V17.2819H14.1732H14.8557V16.5994V15.9169H14.1732H13.4907V16.5994Z" fill="#118B50"/>
</g>
</g>
</svg>
