<svg width="20" height="20" viewBox="0 0 20 20" fill="none" xmlns="http://www.w3.org/2000/svg">
<g id="game-icons:paper-clip">
<path id="Vector" d="M14.0425 2.1048C13.3185 2.14089 12.6005 2.42323 12.0047 3.01901L1.97128 13.0525C1.36472 13.659 1.14331 14.4097 1.22101 15.1091C1.2987 15.8085 1.65277 16.4562 2.15042 16.9538C2.648 17.4515 3.29573 17.8055 3.99507 17.8832C4.69448 17.961 5.44519 17.7395 6.05171 17.133L14.6518 8.533C15.4721 7.71269 15.4115 6.6455 14.831 6.06495C14.2505 5.48448 13.1832 5.42382 12.3629 6.24409L6.62964 11.9773L7.12683 12.4746L12.8602 6.74124C13.4733 6.12816 14.0185 6.24671 14.3339 6.56202C14.6492 6.87737 14.7678 7.42265 14.1546 8.03573L5.55464 16.6357C5.0862 17.1042 4.58277 17.2411 4.0728 17.1844C3.56284 17.1278 3.04585 16.8548 2.64761 16.4566C2.24941 16.0584 1.97644 15.5414 1.9198 15.0314C1.86316 14.5214 2.00003 14.018 2.46847 13.5495L12.5019 3.5162C13.1409 2.87722 13.8758 2.7114 14.6471 2.84159C15.4184 2.97179 16.2145 3.42597 16.8422 4.0537C17.47 4.68136 17.9241 5.47753 18.0543 6.24882C18.1845 7.02015 18.0187 7.75507 17.3797 8.39413L8.77972 16.9941L9.27683 17.4913L17.8769 8.8912C18.6713 8.09687 18.9085 7.08495 18.7476 6.13175C18.5868 5.17855 18.0555 4.27257 17.3394 3.55651C16.6234 2.84042 15.7174 2.30925 14.7642 2.14831C14.5259 2.10808 14.2839 2.09276 14.0426 2.1048H14.0425Z" fill="black"/>
</g>
</svg>
