<svg width="17" height="16" viewBox="0 0 17 16" fill="none" xmlns="http://www.w3.org/2000/svg">
<g clip-path="url(#clip0_160_3533)">
<path d="M13.0001 2C13.6631 2 14.299 2.26339 14.7679 2.73223C15.2367 3.20107 15.5001 3.83696 15.5001 4.5V14.5C15.5001 14.5817 15.48 14.6622 15.4417 14.7344C15.4034 14.8066 15.3479 14.8683 15.2802 14.914C15.2125 14.9598 15.1346 14.9883 15.0534 14.997C14.9721 15.0057 14.89 14.9944 14.8141 14.964L12.5041 14.038L10.1941 14.964C10.1053 14.9996 10.0081 15.009 9.91409 14.991L9.82209 14.964L7.51209 14.038L5.20209 14.964C5.13303 14.9916 5.05869 15.0034 4.98448 14.9987C4.91027 14.9939 4.83806 14.9726 4.77311 14.9364C4.70815 14.9002 4.6521 14.8499 4.60902 14.7893C4.56594 14.7287 4.53693 14.6592 4.52409 14.586L4.51709 14.5V7.36L3.53209 7.032L1.20209 7.964C1.13303 7.99159 1.05869 8.00343 0.98448 7.99865C0.910269 7.99388 0.838058 7.97261 0.773106 7.9364C0.708154 7.90019 0.652097 7.84994 0.60902 7.78933C0.565942 7.72871 0.536927 7.65925 0.52409 7.586L0.51709 7.5V4.5C0.51709 3.83696 0.780482 3.20107 1.24932 2.73223C1.71816 2.26339 2.35405 2 3.01709 2H13.0171H13.0001ZM13.0001 3H5.00009L5.01909 3.024C5.32209 3.437 5.50109 3.947 5.50109 4.504V13.764L7.31109 13.039C7.39992 13.0034 7.4971 12.994 7.59109 13.012L7.68209 13.039L9.99209 13.964L12.3121 13.039C12.4009 13.0034 12.4981 12.994 12.5921 13.012L12.6841 13.039L14.4941 13.764V4.504C14.4941 3.724 13.8991 3.084 13.1341 3.014L12.9901 3.007L13.0001 3ZM10.0001 9C10.1327 9 10.2599 9.05268 10.3536 9.14645C10.4474 9.24021 10.5001 9.36739 10.5001 9.5C10.5001 9.63261 10.4474 9.75979 10.3536 9.85355C10.2599 9.94732 10.1327 10 10.0001 10H7.00009C6.86748 10 6.7403 9.94732 6.64654 9.85355C6.55277 9.75979 6.50009 9.63261 6.50009 9.5C6.50009 9.36739 6.55277 9.24021 6.64654 9.14645C6.7403 9.05268 6.86748 9 7.00009 9H10.0001ZM13.0001 7C13.1327 7 13.2599 7.05268 13.3536 7.14645C13.4474 7.24021 13.5001 7.36739 13.5001 7.5C13.5001 7.63261 13.4474 7.75979 13.3536 7.85355C13.2599 7.94732 13.1327 8 13.0001 8H7.00009C6.86748 8 6.7403 7.94732 6.64654 7.85355C6.55277 7.75979 6.50009 7.63261 6.50009 7.5C6.50009 7.36739 6.55277 7.24021 6.64654 7.14645C6.7403 7.05268 6.86748 7 7.00009 7H13.0001ZM3.00009 3L2.85609 3.007C2.48498 3.04247 2.1403 3.21459 1.88897 3.48993C1.63765 3.76528 1.49762 4.1242 1.49609 4.497V6.757L3.30609 6.032C3.38795 5.99945 3.47695 5.9891 3.56409 6.002L3.65009 6.022L4.49209 6.302V4.492C4.49209 3.712 3.89709 3.072 3.13209 3.002L2.98809 2.995L3.00009 3ZM13.0001 5C13.1327 5 13.2599 5.05268 13.3536 5.14645C13.4474 5.24021 13.5001 5.36739 13.5001 5.5C13.5001 5.63261 13.4474 5.75979 13.3536 5.85355C13.2599 5.94732 13.1327 6 13.0001 6H7.00009C6.86748 6 6.7403 5.94732 6.64654 5.85355C6.55277 5.75979 6.50009 5.63261 6.50009 5.5C6.50009 5.36739 6.55277 5.24021 6.64654 5.14645C6.7403 5.05268 6.86748 5 7.00009 5H13.0001Z" fill="black"/>
</g>
<defs>
<clipPath id="clip0_160_3533">
<rect width="16" height="16" fill="white" transform="translate(0.5)"/>
</clipPath>
</defs>
</svg>
